<svg width="101" height="104" viewBox="0 0 101 104" fill="none" xmlns="http://www.w3.org/2000/svg">
<g filter="url(#filter0_i_152_1429)">
<path d="M89.7813 84.0147C73.0438 105.967 41.6716 110.256 19.7194 93.5189C-2.23278 76.7814 -6.52227 45.4092 10.2152 23.457C26.9527 1.50486 69.5954 -7.24235 86.0806 6.80367C101.304 19.9245 106.519 62.0626 89.7813 84.0147Z" fill="#95D420"/>
</g>
<mask id="mask0_152_1429" style="mask-type:alpha" maskUnits="userSpaceOnUse" x="0" y="0" width="101" height="104">
<path d="M89.7813 84.0147C73.0438 105.967 41.6716 110.256 19.7194 93.5189C-2.23278 76.7814 -6.52227 45.4092 10.2152 23.457C26.9527 1.50486 69.5954 -7.24235 86.0806 6.80367C101.304 19.9245 106.519 62.0626 89.7813 84.0147Z" fill="#FE94DD"/>
</mask>
<g mask="url(#mask0_152_1429)">
<g filter="url(#filter1_f_152_1429)">
<path d="M70.511 -6.59205C90.2918 11.135 46.2941 4.35624 24.8681 28.2645C3.44215 52.1727 12.7015 97.7144 -7.07927 79.9874C-26.86 62.2604 -25.5263 28.5083 -4.10037 4.60006C17.3256 -19.3082 50.7303 -24.3191 70.511 -6.59205Z" fill="#FFFCED"/>
</g>
</g>
<defs>
<filter id="filter0_i_152_1429" x="-9.36289" y="-7.02217" width="109.508" height="110.756" filterUnits="userSpaceOnUse" color-interpolation-filters="sRGB">
<feFlood flood-opacity="0" result="BackgroundImageFix"/>
<feBlend mode="normal" in="SourceGraphic" in2="BackgroundImageFix" result="shape"/>
<feColorMatrix in="SourceAlpha" type="matrix" values="0 0 0 0 0 0 0 0 0 0 0 0 0 0 0 0 0 0 127 0" result="hardAlpha"/>
<feOffset dx="-9.36289" dy="-7.02217"/>
<feGaussianBlur stdDeviation="12.874"/>
<feComposite in2="hardAlpha" operator="arithmetic" k2="-1" k3="1"/>
<feColorMatrix type="matrix" values="0 0 0 0 1 0 0 0 0 1 0 0 0 0 1 0 0 0 1 0"/>
<feBlend mode="normal" in2="shape" result="effect1_innerShadow_152_1429"/>
</filter>
<filter id="filter1_f_152_1429" x="-57.3482" y="-53.4601" width="169.11" height="173.71" filterUnits="userSpaceOnUse" color-interpolation-filters="sRGB">
<feFlood flood-opacity="0" result="BackgroundImageFix"/>
<feBlend mode="normal" in="SourceGraphic" in2="BackgroundImageFix" result="shape"/>
<feGaussianBlur stdDeviation="18.1316" result="effect1_foregroundBlur_152_1429"/>
</filter>
</defs>
</svg>
