<svg width="763" height="656" viewBox="0 0 763 656" fill="none" xmlns="http://www.w3.org/2000/svg">
<g opacity="0.3">
<path d="M12.8943 431.537C14.1517 445.537 18.7549 458.96 28.4685 469.422C37.4313 479.132 49.4299 485.443 61.8559 489.88C79.8667 496.192 98.925 498.871 117.905 499.743C140.689 500.67 163.801 499.716 186.223 504.523C228.599 513.57 267.25 537.684 303.156 560.914C311.511 566.279 319.506 572.521 325.364 580.723C332.325 590.399 334.27 601.642 334.884 613.296C335.139 618.418 335.365 625.441 340.377 628.38C345.775 631.545 354.158 627.602 359.242 625.04C373.141 618.063 381.759 604.725 389.16 591.606C397.487 576.647 405.708 561.781 416.242 548.272C439.387 518.689 470.826 495.368 508.023 487.651C529.569 483.188 553.651 482.7 574.854 489.227C593.604 494.989 609.408 507.26 627.677 514.191C649.364 522.452 663.833 504.101 672.442 486.458C683.05 464.444 688.093 440.255 694.679 416.971C707.049 373.351 720.424 329.699 737.01 287.463C744.516 268.345 752.163 248.635 752.966 227.866C753.654 210.293 748.575 193.534 739.152 178.787C721.865 151.4 692.024 128.877 659.881 122.618C637.632 118.223 614.825 120.599 592.314 118.589C570.096 116.7 550.71 108.493 531.613 97.5021C514.244 87.6283 497.155 76.572 477.92 70.5775C459.271 64.8225 439.552 64.5018 420.481 67.9287C399.282 71.7135 379.489 79.8972 359.105 86.4396C337.903 93.2274 315.529 95.1314 293.343 94.245C271.756 93.3987 250.43 90.1672 229.091 87.1351C218.472 85.6224 207.852 84.1097 197.205 82.9956C186.459 81.8749 175.652 81.651 164.885 80.8293C157.211 80.2147 150.516 76.963 143.962 73.1199C140.107 70.8593 135.794 67.9674 131.191 67.8591C126.39 67.7375 122.456 71.0777 119.52 74.4849C113.874 80.9139 110.123 88.9716 107.96 97.2358C97.976 135.209 120.313 173.847 109.345 211.554C104.908 226.774 97.4263 241.088 89.5859 254.778C81.3923 269.246 72.3279 283.254 63.0774 297.05C55.3719 308.747 47.2808 320.218 40.539 332.48C31.9787 347.923 24.8541 364.364 19.804 381.245C14.7081 397.321 11.6464 414.435 12.8943 431.537C12.9468 432.242 14.0643 432.016 14.0118 431.312C11.3448 395.194 26.5096 357.668 44.6142 327.047C59.6682 301.527 77.6001 277.901 92.0758 252.042C99.1437 239.401 105.953 226.143 110.003 212.199C114.686 196.295 113.205 179.677 110.892 163.505C108.031 143.591 103.886 123.392 107.449 103.308C109.555 91.4363 119.098 62.944 135.965 69.8809C141.13 72.0291 145.603 75.5324 150.755 77.8799C157.749 81.1518 164.632 81.6132 172.226 81.922C193.308 82.8346 214.241 85.9396 235.089 88.8386C275.579 94.656 317.413 99.8628 357.315 87.7211C377.06 81.7365 396.042 73.6987 416.263 69.5481C437.197 65.245 458.645 65.181 479.13 71.96C498.151 78.1404 514.934 89.2763 532.21 99.0437C549.008 108.479 566.219 116.24 585.49 118.733C607.049 121.479 628.839 119.336 650.305 121.976C668.492 124.196 685.179 130.821 700.32 141.046C731.373 161.948 755.244 195.683 751.018 234.443C748.725 255.012 740.507 274.283 733.1 293.408C725.214 313.702 718.391 334.568 711.775 355.348C701.603 387.202 693.007 419.461 683.72 451.575C680.338 463.061 676.549 474.62 671.305 485.481C666.528 495.372 660.18 506.259 650.378 511.909C637.655 519.265 624.414 512.07 612.801 505.986C596.342 497.475 580.841 488.127 562.308 485.082C525.642 479.021 487.606 487.283 456.841 508.046C428.705 526.983 407.93 554.122 391.901 583.681C384.786 597.019 377.291 611.533 364.36 620.477C357.106 625.497 340.505 633.895 337.059 621.15C334.818 612.791 336.024 603.862 333.69 595.396C328.944 578.16 315.261 567.131 300.758 557.85C283.463 546.88 266.055 536.103 247.754 526.667C229.739 517.451 210.952 509.284 191.244 504.359C170.353 499.154 148.798 499.311 127.39 498.777C107.385 498.237 87.5612 496.508 68.3129 490.713C54.4634 486.581 40.6557 480.35 30.3436 469.848C20.1312 459.352 15.2422 445.71 13.912 431.305C13.9592 430.608 12.8417 430.833 12.8943 431.537Z" fill="url(#paint0_linear_95_61)"/>
<path d="M96.3152 487.086C117.666 491.42 139.461 490.679 161.101 492.229C183.24 493.813 203.891 499.602 224.128 508.567C243.686 517.186 262.191 528.037 280.49 538.974C288.773 543.934 297.261 548.808 305.423 554.06C313.2 559.087 320.716 564.996 325.171 573.204C329.885 582.029 329.603 592.121 331.257 601.742C332.242 607.915 334.818 612.793 341.095 614.815C348.448 617.21 353.333 613.133 359.582 609.648C366.967 605.638 373.922 600.598 380.119 594.906C392.3 583.71 401.151 569.887 410.674 556.51C421.076 541.991 432.92 528.369 446.445 516.561C475.745 490.795 512.371 475.23 551.748 476.768C562.242 477.171 572.543 478.963 582.409 482.728C591.298 486.127 599.713 490.595 608.262 494.572C618.56 499.367 630.272 505.457 641.53 500.506C650.412 496.596 656.512 487.895 661.168 479.798C666.977 469.476 671.038 458.335 674.6 447.161C677.648 437.655 680.097 428.109 682.846 418.582C688.837 398.161 695.32 377.873 702.196 357.711C708.951 337.841 715.52 317.759 723.838 298.495C731.336 280.978 740.224 263.654 743.999 244.886C747.473 227.6 745.214 210.63 737.162 194.873C729.906 180.672 719.223 168.243 706.988 158.013C694.561 147.669 680.197 139.298 664.678 134.654C646.108 129.205 626.13 128.266 607.038 126.085C586.257 123.691 565.85 120.221 546.824 111.137C529.447 102.865 513.562 91.789 496.091 83.4101C478.429 74.9182 459.578 70.6513 439.864 71.7325C420.756 72.7543 402.149 78.2144 384.094 84.4123C374.148 87.7501 364.468 91.6062 354.276 94.1266C343.879 96.7333 333.363 98.1307 322.702 98.7175C302.084 99.8382 281.382 97.7498 261.027 94.9839C240.373 92.1979 219.772 88.6147 198.951 86.8186C189.587 85.9908 179.517 86.7173 170.502 83.7104C164.625 81.7147 159.54 78.3706 153.903 75.7903C142.435 70.5167 134.215 77.9745 128.147 87.6789C119.382 101.707 117.617 118.908 118.733 135C120.13 155.817 126.157 176.343 125.033 197.391C124.323 210.858 118.957 223.513 112.934 235.523C99.2683 262.737 81.2555 287.559 64.3197 312.752C46.9107 339.015 35.065 368.955 30.9461 400.214C28.9304 415.195 28.5297 431.486 33.9767 445.767C38.402 457.376 46.7933 466.648 57.3819 473.064C69.1203 480.258 82.684 484.17 96.1224 486.973C96.814 487.119 97.1874 486.043 96.4958 485.897C69.034 480.052 40.1677 468.306 32.8796 438.285C28.8844 421.799 30.8961 403.914 34.2032 387.618C37.7569 370.637 43.3988 353.897 50.8753 338.18C62.7762 313.35 80.886 291.538 95.4789 268.39C109.506 246.205 125.936 221.077 126.267 193.97C126.792 158.065 106.846 115.183 132.64 83.4751C137.234 77.7765 142.944 73.3539 150.491 75.8619C155.583 77.6048 160.076 80.8092 164.936 83.037C171.836 86.2025 178.4 86.9427 185.895 87.2449C195.984 87.7209 206.138 88.7019 216.173 89.9752C255.028 94.782 294.212 103.615 333.595 99.1473C372.978 94.6793 407.874 72.091 448.31 72.7992C469.126 73.1934 488.101 80.0714 506.075 89.8856C522.022 98.5629 537.163 108.788 554.036 115.625C571.979 122.935 591.45 125.441 610.542 127.622C629.441 129.689 649.319 130.621 667.543 136.748C698.406 147.126 727.559 172.406 739.522 202.94C754.636 241.695 729.276 278.838 716.269 314.105C703.021 349.958 690.537 386.362 680.228 423.212C674.29 444.338 668.848 466.998 656.182 485.37C650.515 493.6 642.261 501.556 631.56 501.239C624.158 501.043 616.6 497.233 609.998 494.088C601.642 490.224 593.519 485.875 584.936 482.397C551.868 469.068 511.666 475.283 480.619 491.322C451.435 506.484 427.478 530.306 408.639 556.974C398.889 570.737 389.725 584.738 376.946 595.895C370.024 601.938 362.404 606.433 354.393 610.801C349.922 613.205 346.574 615.283 341.282 613.527C335.405 611.531 333.101 607.072 332.189 601.304C330.839 593.105 330.92 584.501 327.848 576.587C325.208 569.702 320.478 564.079 314.882 559.4C308.343 553.856 300.705 549.74 293.387 545.345C284.719 540.159 276.151 534.979 267.377 529.886C250.7 520.159 233.682 511.01 215.832 503.807C196.812 496.125 177.555 491.931 156.999 490.653C136.636 489.488 116.072 489.812 96.0038 485.764C95.6048 485.737 95.5239 486.933 96.3152 487.086Z" fill="url(#paint1_linear_95_61)"/>
<path d="M106.852 477.983C127.006 482.237 147.677 481.821 168.179 483.896C189.572 486.131 209.245 493.055 228.456 502.352C246.89 511.296 264.312 521.874 282.067 531.974C295.474 539.68 314.156 546.438 321.897 560.872C326.16 568.967 325.746 578.049 326.748 586.926C327.375 592.474 328.213 599.338 333.957 601.825C339.116 604.073 347.855 603.758 353.171 602.212C355.625 601.475 357.436 599.895 359.153 598.208C362.808 594.549 367.624 592.969 372.103 590.466C385.544 582.858 396.508 571.88 406.421 560.131C417.527 547.06 428.047 533.75 440.382 521.763C453.142 509.404 467.132 498.128 482.563 489.251C490.282 484.763 498.366 480.8 506.703 477.555C516.27 473.891 526.227 471.856 536.344 470.432C546.561 469.014 557.123 468.421 567.344 469.907C577.465 471.386 586.925 475.224 596.378 479.161C607.195 483.69 620.968 491.921 633.089 487.528C641.818 484.409 647.877 476.306 652.4 468.7C658.288 458.684 662.342 447.643 665.99 436.675C669.138 427.175 671.701 417.436 674.656 407.824C680.892 388.22 687.621 368.749 694.741 349.404C701.482 331.236 708.043 312.755 716.532 295.404C724.421 279.515 733.607 263.713 737.101 246.127C743.482 214.019 723.039 184.418 698.974 165.386C686.799 155.76 672.7 147.907 657.627 144.094C639.501 139.475 620.749 136.717 602.477 132.789C583.905 128.841 564.721 125.053 547.324 117.079C530.312 109.331 514.813 98.4818 498.034 90.2493C481.162 81.9105 463.137 77.2985 444.255 77.935C425.772 78.5982 407.897 83.6068 390.567 89.4529C380.927 92.711 371.553 96.4875 361.661 99.028C351.357 101.741 340.827 103.338 330.265 103.931C310.346 105.099 290.442 103.064 270.692 100.239C251.035 97.5194 231.532 94.0097 211.715 92.1808C202.551 91.3663 193.1 91.8341 184.291 88.7409C178.713 86.7652 173.715 83.627 168.143 81.5517C156.322 77.0553 147.629 85.5827 141.575 95.0877C133.149 108.538 131.232 125.028 132.381 140.622C133.885 161.346 140.018 181.779 138.297 202.786C137.254 215.23 131.537 227.161 125.688 238.081C112.257 263.309 95.0636 286.383 78.8409 309.923C71.7353 320.159 65.3279 330.441 60.6284 342.139C54.5889 357.351 50.5903 373.501 48.3873 389.772C44.7713 416.559 45.1157 447.015 69.8408 463.689C80.854 471.235 93.9257 475.014 106.852 477.983C107.543 478.129 107.917 477.053 107.225 476.907C93.7006 473.898 79.8511 469.766 68.5858 461.503C57.4136 453.346 50.8072 441.39 48.8246 427.743C46.5252 411.371 48.3899 394.177 51.484 378.066C54.5713 362.055 59.3612 346.058 66.7635 331.438C71.9738 321.076 79.1186 311.744 85.7713 302.279C93.8691 290.708 102.067 279.144 109.786 267.248C117.165 255.93 124.259 244.392 130.196 232.176C135.086 222.093 139.2 211.657 139.669 200.276C141.357 164.95 120.891 123.834 145.275 92.2323C149.67 86.5203 155.801 80.324 163.627 81.6495C169.273 82.6286 174.351 86.0723 179.41 88.3135C185.732 91.1399 191.969 92.2588 198.859 92.6205C208.642 93.1761 218.297 94.1237 228.026 95.4765C265.179 100.269 302.581 108.783 340.254 104.401C359.749 102.103 377.36 95.0748 395.908 89.01C414.043 83.1178 432.795 78.4683 451.989 79.1541C471.98 79.8935 490.043 86.9106 507.333 96.4787C522.495 104.903 537.078 114.49 553.173 120.975C570.152 127.719 588.658 131.162 606.445 134.857C623.933 138.532 642.007 140.945 659.215 145.802C689.793 154.459 718.435 178.403 731.404 207.403C739.242 224.847 738.448 242.513 731.834 260.29C725.82 276.605 716.396 291.491 709.804 307.467C695.566 341.651 682.658 376.926 672.045 412.354C665.94 432.968 660.626 455.236 648.193 473.123C642.645 481.061 634.525 488.525 624.164 487.631C615.898 486.876 607.562 482.714 599.963 479.501C591.679 476.043 583.409 472.385 574.639 470.195C556.7 465.789 537.889 468.333 520.089 472.245C503.818 475.76 488.341 483.832 474.506 492.816C447.369 510.318 426.929 533.975 406.336 558.423C395.551 571.215 383.715 583.236 368.664 590.937C365.337 592.716 361.864 593.684 359.182 596.308C355.847 599.688 352.832 601.288 348.097 601.671C344.266 602.015 340.235 602.346 336.392 601.387C330.281 599.877 328.943 594.481 328.01 589.013C326.747 581.019 327.407 572.754 324.82 565.073C322.81 559.232 319.13 554.38 314.492 550.365C309.096 545.699 302.714 542.268 296.525 538.95C288.409 534.501 280.306 529.854 272.31 525.113C239.719 506.21 206.371 486.656 168.153 482.793C147.851 480.731 127.273 481.254 107.125 476.9C106.54 476.661 106.16 477.837 106.852 477.983Z" fill="url(#paint2_linear_95_61)"/>
<path d="M117.588 468.893C136.738 473.18 156.391 472.996 175.742 475.794C196.283 478.773 215.057 487.139 233.251 496.668C250.281 505.618 266.739 515.631 283.663 524.674C296.433 531.436 313.421 536.579 319.566 550.907C322.944 558.741 321.958 567.385 322.603 575.637C322.964 580.667 323.655 588.221 328.354 591.339C332.761 594.338 339.473 592.885 344.256 591.805C350.049 590.591 357.392 590.182 362.078 586.092C364.215 584.132 365.687 581.628 367.73 579.563C371.165 576.189 376.807 574.265 380.886 571.735C388.106 567.214 394.854 562.26 401.337 556.788C414.083 546.13 425.327 533.969 437.422 522.567C449.942 510.792 463.221 499.669 477.595 490.121C492.501 480.108 509.51 470.136 527.111 466.21C536.983 463.969 546.761 461.621 556.91 461.2C567.166 460.686 576.947 462.743 586.654 465.896C595.384 468.684 603.867 472.156 612.844 474.259C617.285 475.258 621.462 475.738 625.773 474.225C634.082 471.378 639.915 463.66 644.211 456.44C650.093 446.523 654.14 435.582 657.681 424.707C660.956 414.815 663.738 404.791 667.106 395.005C673.574 376.418 680.535 357.964 687.98 339.742C695.059 322.498 702.131 305.352 711.537 289.264C719.463 275.78 728.129 261.745 730.597 245.993C735.207 216.369 711.955 188.282 689.511 171.961C677.289 163.033 663.694 156.616 648.886 153.321C631.605 149.559 614.717 144.423 597.836 139.187C581.247 134.071 563.693 129.891 547.724 123.014C530.593 115.559 515.193 104.716 498.421 96.3836C482.62 88.517 465.898 83.8923 448.24 84.2104C430.482 84.5218 413.24 89.0723 396.528 94.6595C377.668 100.904 359.785 107.513 339.738 109.073C319.798 110.539 299.795 108.498 280.052 105.573C260.901 102.787 241.896 99.3111 222.678 97.5223C214.112 96.748 205.593 96.7776 197.382 93.7245C191.811 91.6492 186.613 88.4977 180.795 87.1066C168.667 84.1914 159.113 95.0636 153.657 104.609C146.163 117.621 144.706 133.241 145.909 148.038C147.687 167.678 153.561 187.493 151.215 207.358C149.841 218.778 144.085 229.805 138.602 239.749C125.372 263.489 108.872 285.208 93.0498 307.273C86.6303 316.253 80.1178 325.127 75.8187 335.35C69.9667 349.273 66.94 364.387 65.1306 379.283C62.128 404.409 59.6173 437.077 82.1073 454.201C92.5017 462.006 105.267 465.865 117.588 468.893C118.28 469.04 118.653 467.963 117.962 467.817C105.142 464.755 91.8844 460.763 81.5371 452.261C70.1533 442.788 66.0421 429.499 65.204 415.227C64.254 399.646 65.3193 383.9 67.9604 368.56C70.4545 353.911 74.2927 338.651 81.9794 325.752C87.3016 316.698 93.8802 308.33 99.9667 299.828C107.811 289.041 115.662 278.155 123.121 267.142C130.467 256.322 137.533 245.183 143.436 233.466C147.714 225.043 151.726 216.102 152.666 206.654C156.223 171.854 134.976 133.39 157.178 101.441C161.507 95.2241 168.125 87.759 176.445 87.716C181.958 87.6851 187.07 90.6306 192.036 92.7655C206.635 99.15 222.717 98.4259 238.311 100.472C274.459 105.298 310.757 113.838 347.426 109.488C366.216 107.244 383.328 100.182 401.151 94.4688C418.354 89.0147 436.175 84.8032 454.364 85.5219C473.65 86.3141 491.108 93.3907 507.819 102.62C522.496 110.811 536.601 120.066 552.324 126.125C568.147 132.191 584.896 136.418 600.993 141.401C617.289 146.397 633.605 151.095 650.188 154.809C680.097 161.519 708.076 183.417 722.376 210.504C730.549 225.968 732.37 242.007 726.343 258.522C720.682 274.06 710.86 287.417 703.358 302.031C695.389 317.614 689.056 334.208 682.643 350.497C676.124 366.878 669.79 383.473 664.348 400.226C657.772 420.408 652.983 442.312 640.656 460.106C635.216 467.95 627.401 475.335 617.074 473.942C599.492 471.662 583.938 461.61 565.996 460.207C557.225 459.519 548.425 460.731 539.797 462.355C531.775 463.92 523.76 465.385 516.142 468.378C500.8 474.457 486.321 482.597 472.751 492.099C459.082 501.594 446.423 512.458 434.321 523.961C423.078 534.619 412.487 546.023 400.486 556.03C393.371 561.96 385.891 567.365 378.052 572.146C374.812 574.131 370.607 575.551 367.745 577.862C365.096 579.987 363.557 583.488 360.901 585.712C357.826 588.209 353.902 588.447 350.237 589.302C346.671 590.164 343.106 591.027 339.361 591.577C335.922 592.047 331.585 592.457 328.635 590.157C325.019 587.312 324.333 581.159 323.918 576.927C323.134 569.266 324.072 561.32 321.871 553.864C320.24 548.349 317.052 543.63 312.799 539.841C308.168 535.727 302.55 532.848 297.026 530.075C289.461 526.364 282.102 522.567 274.764 518.471C243.376 501.051 212.037 479.929 175.823 474.599C156.572 471.806 137.019 471.998 117.968 467.717C117.277 467.571 116.903 468.647 117.588 468.893Z" fill="url(#paint3_linear_95_61)"/>
<path d="M128.325 459.803C147.448 464.489 167.307 464.218 186.443 468.704C205.68 473.197 223.547 483.104 240.637 492.659C256.086 501.303 271.287 510.631 287.448 517.621C300.299 523.187 315.051 528.781 318.116 544.203C319.619 551.612 318.508 559.146 319.007 566.587C319.368 571.617 320.299 578.587 324.48 581.971C327.995 584.809 333.157 584.054 337.228 583.125C343.733 581.759 349.828 579.065 356.068 577.18C361.49 575.542 365.282 574.294 368.904 569.631C374.058 563.069 379.616 557.936 386.364 552.982C399.974 542.882 414.952 534.776 428.655 524.783C441.931 515.161 454.285 504.377 467.662 494.762C482.509 484.144 498.1 474.378 514.668 466.478C518.394 464.726 522.126 462.874 526.032 461.434C530.662 459.642 535.638 458.674 540.434 457.393C549.721 454.913 559.22 452.246 568.983 453.1C578.951 453.869 588.558 457.015 598.326 459.272C604.144 460.663 610.627 462.599 616.514 461.492C625.041 459.861 631.054 452.456 635.33 445.534C641.184 436.016 645.211 425.374 648.825 414.904C652.326 404.628 655.329 394.317 659.122 384.16C665.716 366.682 672.901 349.345 680.665 332.346C687.715 317.001 694.925 302.268 704.481 288.392C712.373 276.908 721.116 264.68 723.47 250.622C725.804 236.864 720.31 223.281 712.965 211.876C705.082 199.535 694.577 188.92 682.62 180.51C670.471 171.988 657.593 166.82 643.304 163.259C627.825 159.519 613.013 153.32 598.38 147.434C583.455 141.428 568.383 136.113 553.211 130.791C536.377 124.858 521.529 114.752 505.974 106.202C490.998 97.9898 475.089 91.7178 457.831 90.561C440.268 89.4839 422.98 93.2304 406.295 98.419C388.38 104.026 371.354 111.294 352.571 113.438C333.382 115.656 314.056 113.96 295.091 111.387C276.425 108.835 257.833 105.186 239.041 103.025C230.19 102.032 221.271 102.035 212.748 99.1607C207.163 97.2847 201.845 94.4255 196.02 93.1341C183.872 90.5178 174 100.167 167.946 109.672C160.087 122.16 158.157 137.347 159.288 151.739C160.793 170.961 166.808 190.184 164.489 209.65C163.282 220.081 157.906 229.932 152.89 238.906C139.913 261.862 123.566 282.791 107.805 303.958C102.072 311.683 95.6333 319.46 91.2426 328.076C84.7866 340.557 82.4987 355.12 81.1625 368.946C79.7386 384.067 79.9041 399.395 81.2868 414.504C82.4 426.191 86.0812 436.95 95.1654 444.866C104.642 452.91 116.702 456.822 128.325 459.803C129.017 459.95 129.39 458.873 128.698 458.727C116.185 455.586 102.848 451.288 93.6651 441.863C83.5457 431.474 82.4811 417.587 81.9085 403.834C80.6366 376.719 81.1981 344.722 97.0015 321.454C110.028 302.205 124.776 284.173 137.995 265.037C145.1 254.802 151.92 244.347 157.584 233.214C161.621 225.376 165.286 217.112 165.986 208.249C168.757 174.698 148.474 136.798 171.746 106.824C176.573 100.64 183.443 93.8928 191.856 93.9562C197.762 94.0517 203.472 97.0373 208.844 99.0992C223.497 104.686 239.957 104.288 255.438 106.527C290.263 111.664 325.789 119.752 361.077 113.608C378.824 110.493 395.371 102.892 412.64 97.9433C429.604 93.0737 447.237 90.1512 464.913 92.5373C499.664 97.2693 525.438 123.624 558.33 133.637C587.684 142.612 615.004 157.958 644.999 164.874C674.401 171.65 701.591 191.893 715.712 218.668C723.26 232.989 725.182 247.534 718.751 262.619C712.805 276.437 702.812 287.88 695.126 300.779C686.986 314.449 680.754 329.549 674.362 344.037C667.724 359.209 661.273 374.594 655.805 390.245C648.843 410.2 644.213 432.715 631.129 449.858C628.166 453.664 624.611 457.33 620.074 459.228C613.574 461.996 606.3 459.906 599.69 458.362C591.598 456.518 583.746 454.09 575.52 452.738C567.002 451.266 558.948 451.827 550.507 453.664C542.877 455.355 534.555 456.899 527.25 459.713C519.027 462.766 511.036 466.835 503.338 471.025C488.985 478.772 475.449 487.776 462.379 497.311C449.934 506.488 438.212 516.814 425.588 525.679C412.018 535.181 397.553 543.121 384.349 553.148C378.645 557.47 373.447 561.727 369.245 567.552C366.601 571.079 364.005 573.908 359.615 575.116C357.06 575.845 354.406 576.568 351.845 577.398C345.591 579.481 339.191 582.256 332.546 582.711C323.587 583.312 321.014 575.431 320.23 567.77C318.998 554.874 322.322 541.282 312.708 530.826C304.869 522.292 292.867 518.985 282.676 514.097C249.87 498.383 219.353 474.013 183.073 466.676C165.08 463.068 146.651 462.934 128.705 458.627C128.014 458.481 127.64 459.557 128.325 459.803Z" fill="url(#paint4_linear_95_61)"/>
<path d="M139.069 450.613C157.38 455.445 176.6 455.732 194.531 461.739C212.562 467.753 229.1 478.071 245.604 487.387C259.696 495.339 273.929 502.7 289.067 508.52C302.935 513.854 314.873 521.061 315.576 537.326C316.072 547.771 311.594 565.09 320.977 573.027C327.795 578.89 340.244 572.617 347.051 569.769C352.619 567.44 358.002 564.897 363.73 563.179C369.052 561.533 372.367 558.452 375.477 553.955C385.14 539.987 399.194 530.718 413.973 522.598C427.194 515.276 440.482 508.458 453.259 500.304C467.499 491.248 481.647 482.085 496.253 473.554C504.285 468.887 512.402 464.425 520.7 460.276C524.539 458.331 528.371 456.486 532.197 454.74C536.335 452.815 540.799 452.013 545.209 450.507C553.206 447.839 561.05 444.461 569.563 444.531C579.073 444.668 588.548 446.804 598.005 447.739C603.378 448.299 608.937 449.072 614 446.809C617.52 445.142 620.509 442.44 623.012 439.504C629.983 431.262 634.202 420.733 637.982 410.775C641.776 400.618 644.792 390.108 648.685 379.958C655.018 363.364 662.635 347.056 670.717 331.28C677.639 317.828 684.462 304.37 694.076 292.601C702.492 282.254 712.332 271.601 715.928 258.427C719.385 245.845 714.522 233.305 708.134 222.566C700.935 210.471 690.923 199.989 679.564 191.619C667.92 183.03 655.276 177.377 641.28 173.936C627.283 170.496 614.108 163.806 601.211 157.436C588.122 150.952 575.074 143.871 561.285 138.842C554.144 136.261 546.871 134.172 539.877 130.9C531.813 127.156 524.203 122.641 516.592 118.127C502.42 109.869 487.936 101.79 471.625 98.4946C455.015 95.1788 438.061 96.9455 421.749 101.058C403.902 105.668 386.922 113.74 368.849 117.234C350.37 120.8 331.483 120.035 312.903 117.688C294.716 115.468 276.629 111.753 258.462 109.234C249.432 107.928 240.015 107.897 231.251 105.608C224.748 103.971 218.639 100.958 212.123 99.5205C200.068 97.0106 190.025 104.747 183.179 114.099C174.569 125.835 172.062 140.683 172.906 154.855C173.967 173.246 179.471 191.135 178.216 209.671C177.535 219.736 172.798 229.029 167.909 237.611C155.399 259.598 139.419 279.55 124.031 299.641C117.985 307.545 111.739 315.436 106.265 323.778C99.6713 333.848 97.5519 345.919 96.6566 357.672C95.5724 372.215 96.3836 386.886 97.8068 401.397C98.8863 413.582 99.653 425.947 108.543 435.253C116.582 443.8 128.151 447.579 139.069 450.613C139.753 450.859 140.134 449.684 139.442 449.537C127.54 446.237 114.509 441.859 106.784 431.631C98.6934 420.877 99.0401 405.384 98.1076 392.507C97.0039 377.717 96.5257 362.568 98.9201 347.913C100.7 336.419 105.138 327.106 111.883 317.748C125.594 298.745 140.542 280.726 153.967 261.504C165.062 245.629 178.832 227.231 179.489 207.153C180.563 174.99 162.241 137.723 187.831 110.506C193.117 104.954 199.872 99.9007 207.859 100.336C214.15 100.658 220.167 103.564 226.051 105.46C233.111 107.735 240.081 108.402 247.442 109.196C256.293 110.19 265.024 111.476 273.842 112.968C307.934 118.557 343.03 125.614 377.202 116.692C394.033 112.314 409.961 104.973 427.05 101.213C444.651 97.2872 462.828 96.7036 480.301 102.079C496.79 107.189 511.173 116.763 526.136 125.174C532.51 128.704 538.892 132.135 545.719 134.895C552.348 137.642 559.243 139.406 565.878 142.053C591.619 152.588 615.333 169.394 642.568 175.625C670.98 182.234 697.723 203.148 710.468 229.53C713.721 236.255 716.328 243.638 715.915 251.218C715.523 258.5 712.45 265.402 708.727 271.559C701.853 282.811 692.122 291.87 684.962 302.902C676.57 315.855 669.787 330.216 663.236 344.093C656.82 357.478 650.595 370.976 645.741 384.966C642.127 395.436 638.911 405.932 634.712 416.162C630.753 425.807 626.001 436.801 617.635 443.448C612.77 447.227 607.934 447.603 601.949 447.202C592.672 446.58 583.576 444.769 574.312 443.948C566.345 443.214 559.228 444.739 551.637 447.334C545.377 449.517 538.572 450.863 532.577 453.564C501.971 467.53 473.862 486.068 445.587 504.095C422.023 519.134 391.635 528.409 375.378 552.447C373.48 555.323 371.489 558.093 368.654 560.005C366.132 561.738 363.092 562.235 360.318 563.25C354.876 565.188 349.693 567.744 344.337 569.888C338.981 572.031 332.787 574.72 326.908 574.225C318.935 573.591 316.968 564.149 316.615 557.518C315.921 545.558 319.505 532.584 312.205 521.984C305.809 512.846 294.32 509.373 284.361 505.501C252.13 493.13 224.785 469.273 191.567 459.638C174.566 454.694 156.763 454.202 139.735 449.657C138.75 449.391 138.377 450.467 139.069 450.613Z" fill="url(#paint5_linear_95_61)"/>
<path d="M149.805 441.523C167.291 446.699 185.746 447.936 202.359 455.657C218.878 463.272 234.332 473.317 250.385 481.902C257.445 485.678 264.611 489.362 272.023 492.362C277.681 494.643 283.678 496.347 289.449 498.435C295.512 500.644 301.642 503.357 306.027 508.156C311.156 513.805 312.566 521.108 312.359 528.602C312.116 539.598 308.278 554.858 316.996 563.751C322.81 569.647 333.222 565.339 339.609 562.764C345.377 560.448 350.88 557.613 356.376 554.878C361.246 552.502 366.362 550.942 371.219 548.765C376.182 546.495 379.385 542.105 382.196 537.588C386.352 530.959 391.132 525.473 397.182 520.473C408.956 510.85 422.994 504.784 436.913 499.009C451.137 493.155 464.924 486.371 478.637 479.181C494.739 470.75 510.755 462.113 526.844 453.881C530.89 451.85 534.835 449.812 538.881 447.781C542.407 446.015 546.066 445.259 549.679 443.699C557.317 440.407 563.811 436.237 572.444 436.015C581.675 435.833 590.866 436.249 600.045 435.362C604.282 434.946 607.874 433.685 611.169 430.902C618.816 424.507 623.208 414.39 626.921 405.429C631.353 394.714 634.716 383.527 638.856 372.692C644.589 357.56 652.384 343.066 660.444 329.09C667.591 316.755 674.632 304.513 684.744 294.279C692.812 286.111 702.084 277.922 707.009 267.341C712.293 255.882 708.759 244.433 703.062 233.84C696.469 221.685 686.962 211.137 676.109 202.701C665.064 194.152 652.567 187.808 639.055 184.6C626.329 181.645 614.67 174.757 603.49 168.201C591.631 161.299 580.113 153.82 567.801 147.689C555.011 141.226 541.122 137.692 528.458 130.836C514.253 123.077 500.748 113.862 485.39 108.328C470.032 102.794 453.666 101.797 437.655 104.428C420.328 107.271 404.353 113.808 387.762 119.103C369.84 124.809 350.845 125.638 332.218 123.989C314.389 122.394 296.795 118.812 279.16 115.828C270.243 114.329 261.285 113.429 252.255 112.122C244.714 111.016 237.794 108.15 230.5 106.359C203.212 99.4248 186.624 129.847 186.157 153.042C185.761 170.734 191.405 188.031 191.509 205.758C191.665 216.78 188.564 225.582 183.208 235.134C171.45 256.37 155.731 275.438 140.723 294.354C134.257 302.53 127.699 310.6 121.52 318.995C115.56 327.105 111.908 335.169 110.821 345.308C109.245 359.718 111.16 374.362 113.003 388.601C113.947 395.372 114.899 402.043 115.744 408.807C116.464 414.461 117.809 419.757 120.997 424.475C127.752 434.238 139.3 438.316 149.805 441.523C150.49 441.769 150.863 440.693 150.178 440.447C138.204 436.741 125.007 431.852 119.738 419.386C117.057 413.099 116.837 405.977 115.879 399.405C114.941 392.535 113.903 385.658 113.171 378.701C111.615 364.682 110.046 349.36 114.089 335.516C116.691 326.68 122.789 319.481 128.382 312.347C142.545 294.076 157.379 276.249 170.685 257.32C176.665 248.911 182.365 240.183 187.003 230.883C191.527 221.776 193.191 213.479 192.781 203.24C192.112 186.477 187.006 170.117 187.44 153.328C187.746 138.432 192.934 123.963 204.415 114.222C210.685 108.936 217.724 105.603 226.056 106.863C232.806 107.816 239.228 110.649 245.93 112.299C253.617 114.216 261.511 114.545 269.351 115.671C277.782 116.937 286.201 118.402 294.619 119.867C327.893 125.702 361.063 130.127 393.708 118.601C409.828 112.874 426.154 107.06 443.228 105.001C461.007 102.889 478.342 105.853 494.563 113.448C508.935 120.217 522.042 129.405 536.408 136.275C543.009 139.42 549.884 141.482 556.725 144.043C562.489 146.232 568.013 149.005 573.324 151.963C595.067 163.832 615.795 180.338 640.251 186.182C667.965 192.745 694.341 214.635 705.49 240.91C708.337 247.708 710.166 254.738 708.164 262.112C706.562 268.011 703.106 273.186 699.277 277.934C691.953 286.954 682.45 294.125 675.604 303.477C666.768 315.599 659.24 329.11 652.331 342.362C646.129 354.059 640.411 365.989 635.957 378.505C632.117 389.359 628.568 400.334 623.75 410.823C619.759 419.465 613.935 431.488 603.751 433.909C594.89 436.018 584.835 435.044 575.817 435.04C568.9 435.077 563.519 436.118 557.205 439.098C550.784 442.172 544.038 444.122 537.811 447.309C529.826 451.278 521.828 455.447 513.93 459.623C498.759 467.616 483.682 475.715 468.524 483.509C455.969 489.875 443.068 495.418 430.167 500.96C417.373 506.409 404.824 512.676 394.381 521.887C389.376 526.256 385.447 530.998 381.957 536.671C377.914 543.107 374.153 546.86 366.968 549.381C356.903 553.011 347.693 558.801 337.713 562.637C332.877 564.515 326.603 566.898 321.404 565.248C314.542 562.986 313.088 553.378 312.901 547.259C312.586 535.625 316.461 522.77 310.28 511.945C305.074 502.986 294.809 499.195 285.401 496.062C270.608 491.066 256.821 484.535 243.214 476.816C228.829 468.744 214.718 459.589 199.414 453.257C183.725 446.7 166.574 445.45 150.364 440.659C149.494 440.201 149.113 441.377 149.805 441.523Z" fill="url(#paint6_linear_95_61)"/>
<path d="M160.541 432.433C169.065 435.307 177.941 437.403 186.478 440.078C195.5 442.985 203.743 447.041 211.939 451.795C226.889 460.406 241.485 469.793 257.134 476.949C268.701 482.229 281.282 484.374 292.856 489.554C298.493 492.135 303.75 495.891 306.572 501.586C309.838 508.112 309.332 515.586 308.754 522.655C307.746 533.099 305.153 547.741 314.23 555.758C320.098 560.856 329.458 557.279 335.639 554.79C346.351 550.503 356.093 544.248 366.546 539.343C370.897 537.232 375.879 536.164 379.786 533.223C384.545 529.537 387.409 524.223 390.46 519.122C406.579 492.672 437.157 486.513 464.334 477.322C479.615 472.14 494.664 465.941 509.348 459.217C517.519 455.46 525.603 451.497 533.594 447.427C537.852 445.21 542.011 442.986 546.27 440.769C548.658 439.527 551.113 438.791 553.502 437.549C558.485 434.98 561.829 429.999 567.271 428.061C568.708 427.557 569.898 427.736 571.315 427.531C573.137 427.253 575.1 426.383 576.936 425.906C581.313 424.898 585.856 424.401 590.319 423.599C595.288 422.731 599.964 421.743 603.891 418.502C607.605 415.448 610.396 411.23 612.687 406.979C618.496 396.656 622.178 385.19 626.132 374.143C631.059 360.558 637.243 347.658 644.796 335.25C648.846 328.714 653.081 322.391 657.709 316.194C661.791 310.661 665.687 304.916 670.712 300.247C679.039 292.697 688.662 286.734 695.859 278.107C702.95 269.572 704.341 260.856 700.433 250.483C695.597 237.545 686.742 226.24 676.442 217.04C666.335 207.953 654.304 200.64 641.252 196.561C636.046 195.011 630.9 194.066 626.04 191.838C620.203 189.244 614.72 185.873 609.243 182.403C597.91 175.136 587.03 167.099 575.811 159.639C566.027 153.177 556.428 148.429 545.472 144.491C529.721 138.831 515.95 129.098 501.246 121.305C486.728 113.725 471.423 108.895 454.863 109.286C438.103 109.664 421.944 114.488 406.144 119.936C397.322 122.948 388.68 126.273 379.547 127.964C370.414 129.654 360.963 130.122 351.659 129.899C333.663 129.293 315.962 125.804 298.348 122.521C289.637 120.936 280.926 119.351 272.082 118.258C263.936 117.211 256.17 114.989 248.284 113.059C235.272 109.884 224.362 112.656 214.517 121.907C205.418 130.508 200.812 142.312 199.783 154.557C198.457 171.186 203.563 187.546 204.552 204.03C205.253 215.89 203.25 224.765 197.547 234.995C186.356 255.268 170.903 273.353 156.361 291.299C149.583 299.654 142.712 307.903 136.127 316.371C130.96 323.133 125.92 329.502 124.435 338.112C122.255 351.08 125.036 364.781 127.585 377.466C128.935 384.164 130.485 390.875 131.736 397.566C132.762 403.141 133.056 409.167 135.305 414.423C139.825 424.637 150.655 428.967 160.541 432.433C161.226 432.679 161.599 431.603 160.915 431.357C148.09 426.893 136.756 421.128 134.541 406.463C132.518 393.414 129.371 380.689 127.141 367.726C125.051 355.673 122.65 340.796 128.633 329.384C132.431 322.13 138.276 315.714 143.416 309.352C157.744 291.592 172.651 274.171 185.936 255.54C191.577 247.709 197.031 239.665 201.229 230.937C205.54 222.016 206.592 213.877 205.962 203.924C204.967 187.54 199.861 171.18 201.179 154.65C202.35 140.313 208.554 127.114 220.446 118.701C227.287 113.854 234.545 111.737 242.87 113.096C249.912 114.169 256.754 116.73 263.769 118.201C271.974 119.852 280.347 120.514 288.565 121.965C296.984 123.431 305.389 125.095 313.907 126.567C330.836 129.604 348.112 131.963 365.418 130.921C382.425 129.859 397.447 124.058 413.434 118.823C429.32 113.581 445.931 109.488 462.789 110.618C480.744 111.822 496.453 119.582 511.688 128.412C524.61 135.885 537.166 142.834 551.275 147.583C562.152 151.216 571.995 158.282 581.38 164.718C591.914 171.931 602.123 179.523 613.004 186.059C617.43 188.758 621.871 191.258 626.644 193.28C631.51 195.408 636.564 196.247 641.571 197.784C655.792 202.341 668.839 210.924 679.457 221.347C689.132 230.905 698.976 243.878 701.451 257.659C703.694 270.423 693.004 280.318 684.092 287.629C675.812 294.482 667.992 300.465 661.4 309.033C652.051 321.321 643.474 334.06 636.238 347.691C630.722 358.133 626.582 368.968 622.621 380.114C618.674 391.062 614.779 402.714 607.834 412.059C604.192 417.021 600.086 419.949 594.086 421.249C590.52 422.111 586.782 422.561 583.137 423.118C578.68 423.82 574.376 425.234 570.026 425.843C565.47 426.539 562.315 428.73 558.715 431.592C553.836 435.57 548.587 437.62 543.077 440.555C527.58 448.926 511.732 456.573 495.631 463.503C481.699 469.477 467.515 474.733 452.986 479.165C440.606 482.94 428.026 486.702 416.581 492.942C405.342 499.096 395.651 507.557 388.997 518.523C385.607 524.202 382.296 530.187 376.261 533.487C372.102 535.711 367.306 536.991 363.054 539.109C352.994 544.141 343.372 550.103 332.887 554.005C328.469 555.611 322.934 557.442 318.22 556.025C311.738 554.089 309.484 545.929 308.984 539.989C307.991 528.01 312.744 515.514 308.931 503.746C305.867 494.231 297.392 489.158 288.49 485.958C276.356 481.641 264.335 478.633 252.695 472.947C236.787 465.174 222.018 455.374 206.563 446.83C192.172 438.858 176.34 435.894 160.855 430.752C160.23 431.11 159.856 432.187 160.541 432.433Z" fill="url(#paint7_linear_95_61)"/>
<path d="M171.277 423.343C179.368 426.688 187.692 429.548 195.55 433.379C203.793 437.435 211.35 442.747 219.033 447.667C232.772 456.396 247.223 464.973 262.82 469.923C273.711 473.356 286.16 474.49 295.837 481.046C307.907 489.263 306.458 503.281 304.989 516.097C303.803 526.228 302.267 540.041 311.292 547.353C316.894 551.933 325.396 549.199 331.464 546.903C342.261 542.821 352.103 536.574 362.204 530.944C366.37 528.62 370.542 526.197 374.973 524.391C380.129 522.234 384.66 520.436 388.561 516.092C392.576 511.556 395.254 506.029 398.305 500.928C402.141 494.578 407.128 489.006 412.951 484.391C424.279 475.439 438.123 470.761 452.066 467.591C465.702 464.501 479.578 462.328 493.155 458.633C508.369 454.447 523.165 449.032 537.357 442.174C544.403 438.742 551.476 434.912 558.25 431.061C561.164 429.454 562.784 426.259 564.761 423.689C568.377 419.126 574.843 416.857 580.212 414.513C585.788 412.084 592.128 410.207 596.82 406.016C604.927 398.751 608.935 386.906 612.609 377.042C617.482 364.254 621.75 351.526 628.864 339.689C636.664 326.597 646.718 314.257 657.84 303.89C665.109 297.17 674.796 293.214 682.809 287.344C689.457 282.384 696.839 275.47 696.05 266.408C695.063 254.328 685.883 241.9 678.05 233.266C668.722 223.031 657.164 214.648 644.4 209.287C639.042 207.026 633.29 206.14 627.818 204.071C622.832 202.235 618.113 199.416 613.706 196.418C593.846 183.374 577.123 165.435 556.151 154.018C551.511 151.504 546.591 150.174 541.604 148.338C533.593 145.298 526.062 141.089 518.637 136.787C504.459 128.629 490.414 119.979 474.096 116.783C458.57 113.74 442.793 115.886 427.778 120.086C410.622 124.842 394.361 132.662 376.509 134.368C358.557 136.068 340.603 133.363 322.989 130.08C305.374 126.797 287.406 124.291 269.952 120.118C256.734 117.03 245.276 116.062 233.517 123.983C223.335 130.809 216.808 141.383 214.496 153.341C211.548 168.761 215.711 184.256 217.479 199.592C218.377 207.06 219.32 215.332 217.418 222.713C216.35 226.646 214.591 230.432 212.639 234.105C201.986 253.813 186.681 271.208 172.399 288.27C165.422 296.612 158.351 304.848 151.474 313.196C146.78 318.888 140.535 325.277 138.248 332.432C134.833 342.915 138.007 355.241 140.718 365.533C143.992 377.866 148.483 389.98 150.733 402.644C152.644 414.385 160.946 419.046 171.277 423.343C171.962 423.589 172.336 422.512 171.651 422.266C165.801 419.872 159.159 417.325 155.213 411.955C151.447 406.897 151.414 399.987 149.909 394.08C146.835 381.761 142.337 369.746 139.774 357.261C137.51 346.297 136.356 335.208 143.109 325.75C147.983 318.869 153.529 312.433 158.876 305.984C173.37 288.736 188.143 271.806 201.401 253.574C206.709 246.221 211.83 238.656 215.688 230.505C220.146 220.893 219.823 210.861 218.622 200.469C216.808 184.33 212.201 168.004 215.9 151.834C219.139 138.035 228.673 125.961 242.146 120.857C250.069 117.784 258.308 118.937 266.4 120.781C273.508 122.359 280.517 123.93 287.858 125.022C304.622 127.548 321.185 131.561 337.949 134.086C354.021 136.465 370.487 137.469 386.432 134.333C402.882 131.131 418.225 123.55 434.615 119.743C452.024 115.704 469.874 115.499 486.781 121.838C501.926 127.558 515.212 137.058 529.544 144.426C539.907 149.726 551.257 152.288 561.148 158.657C570.938 165.02 580.056 172.439 589.181 179.758C598.212 186.97 607.33 194.389 617.254 200.26C626.307 205.672 636.435 207.051 645.961 211.394C659.576 217.512 671.751 227.138 681.084 238.775C688.292 247.768 699.344 263.625 692.935 275.409C687.792 284.775 676.694 290.338 667.917 295.656C659.033 301.067 652.27 307.722 645.327 315.565C636.106 325.959 627.908 337.523 621.951 350.038C616.58 361.29 613.151 373.474 608.265 384.959C605.986 390.513 603.407 396.046 599.871 400.915C596.002 406.262 590.918 408.824 584.93 411.426C579.561 413.769 573.999 415.999 568.716 418.548C565.197 420.214 563.118 424.28 560.814 427.229C557.412 431.605 550.32 434.234 545.429 436.909C538.256 440.733 530.804 444.238 523.279 447.337C508.849 453.278 493.914 457.783 478.654 461.165C454.142 466.529 427.517 469.049 408.267 486.98C403.667 491.277 399.825 496.225 396.655 501.618C393.484 507.012 390.686 512.831 385.98 517.221C381.806 521.145 376.611 522.399 371.64 524.769C367.189 526.873 362.911 529.389 358.639 531.806C349.157 537.177 339.741 543.053 329.475 546.67C325.264 548.189 320.049 549.742 315.527 548.438C309.623 546.84 306.683 539.936 305.744 534.567C303.653 522.514 308.466 510.623 307.18 498.524C306.052 488.538 300.219 481.439 291.278 477.336C281.267 472.761 270.121 471.613 259.756 467.815C243.328 461.809 228.426 452.501 213.83 443.113C207.489 439.084 201.254 434.962 194.361 431.697C186.982 428.199 179.25 425.479 171.737 422.472C170.973 421.921 170.593 423.096 171.277 423.343Z" fill="url(#paint8_linear_95_61)"/>
<path d="M181.921 414.146C188.493 419.191 196.065 422.802 202.858 427.562C210.129 432.655 216.96 438.318 224.458 443.025C237.147 450.984 250.669 456.996 265.377 460.284C276.135 462.707 289.355 464.294 297.188 472.928C306.423 483.057 302.426 497.706 301.005 509.824C299.839 519.656 299.481 532.346 308.247 539.041C314.056 543.534 322.558 540.801 328.725 538.511C339.523 534.43 349.365 528.182 359.28 522.339C363.871 519.644 368.369 516.842 373.047 514.352C377.206 512.128 381.71 510.728 385.868 508.504C397.193 502.556 401.155 489.908 407.842 479.944C416.526 467.112 429.708 458.885 444.523 454.673C457.395 451.031 470.684 450.119 483.873 449.202C498.978 448.112 513.97 445.713 528.499 441.281C540.374 437.572 555.184 431.957 564.129 424.148C565.407 423.032 565.894 421.763 566.634 419.711C567.388 417.459 568.141 415.207 569.28 413.181C570.299 411.447 571.863 410.551 573.354 409.249C578.606 404.195 584.802 400.006 589.675 394.626C593.35 390.668 595.788 385.726 598.021 380.87C603.912 367.85 607.569 353.78 614.145 341.006C620.828 328.139 630.454 317.672 641.775 308.821C645.795 305.686 649.602 302.738 654.252 300.647C658.803 298.55 663.434 296.758 667.978 294.76C675.117 291.434 684.731 287.073 687.964 279.281C691.89 270.134 683.415 257.653 678.281 250.601C670.038 239.137 658.96 229.585 646.476 223.042C636.897 217.995 625.951 216.861 616.819 211.143C597.104 198.91 581.592 180.851 563.415 166.619C559.514 163.554 555.6 160.689 551.252 158.295C546.805 155.895 541.971 154.77 537.291 152.854C522.273 146.742 509.107 136.95 494.442 130.061C479.677 123.164 463.898 120.905 447.715 123.124C430.62 125.482 415.204 132.658 398.667 137.156C380.699 142.058 361.945 140.801 343.818 137.684C325.991 134.587 308.097 130.985 290.41 127.296C275.981 124.327 262.323 121.81 248.782 129.412C238.468 135.227 231.21 144.752 228.333 156.172C221.765 182.16 239.603 210.285 226.525 234.736C216.319 253.774 201.06 270.47 187.033 286.749C179.749 295.17 172.372 303.486 165.182 312.013C160.395 317.599 154.79 323.43 151.246 329.9C146.676 338.203 149.851 349.027 152.59 357.42C156.49 369.394 162.146 380.585 165.946 392.553C167.438 397.158 167.579 402.473 170.209 406.553C172.932 410.74 177.293 412.935 182 414.451C182.685 414.698 183.058 413.621 182.374 413.375C177.866 411.872 173.498 409.777 170.975 405.604C168.91 402.061 168.701 397.743 167.554 393.962C165.532 386.819 162.486 380.007 159.739 373.216C154.762 360.869 145.03 341.797 153.315 328.937C159.256 319.625 167.331 311.357 174.508 303.028C184.394 291.678 194.381 280.334 203.889 268.658C212.298 258.41 220.727 247.862 227.129 236.178C229.188 232.412 231.16 228.44 232.048 224.195C233.766 215.1 232.046 204.973 230.751 195.977C227.869 176.363 224.252 154.296 239.257 138.384C246.6 130.567 257.165 125.469 267.9 125.287C278.335 125.086 288.633 128.379 298.834 130.164C321.216 134.066 343.53 140.468 366.301 141.593C377.287 142.13 388.268 141.264 398.885 138.372C409.502 135.479 419.721 131.059 430.345 128.067C441.175 124.989 452.437 122.94 463.822 123.503C476.112 124.027 487.581 127.799 498.429 133.331C507.922 138.172 516.749 143.969 526.235 148.91C533.587 152.806 541.565 154.843 548.944 158.341C561.947 164.618 572.817 175.758 583.396 185.277C593.982 194.696 604.514 204.912 616.638 212.332C621.643 215.371 626.563 216.702 632.062 218.372C641.197 221.086 649.706 225.661 657.349 231.179C665.464 237.128 672.693 244.32 678.345 252.608C682.629 258.902 689.908 269.801 687.36 277.839C685.326 284.21 678.339 288.246 672.83 291.181C667.014 294.195 660.94 296.591 654.952 299.192C642.244 304.848 630.596 315.58 622.146 326.426C611.053 340.799 606.103 357.686 599.57 374.266C596.423 382.264 592.864 390.435 586.355 396.306C580.91 401.246 574.801 405.642 569.549 410.696C567.725 412.476 563.321 421.291 564.682 423.384C564.503 423.072 564.11 422.945 563.791 423.224C546.754 435.096 526.949 441.978 506.568 445.517C489.733 448.493 472.508 448.34 455.679 451.216C440.267 453.887 425.159 459.481 413.975 470.745C402.466 482.387 398.617 502.251 382.536 508.882C370.787 513.7 360.292 520.705 349.239 527.072C343.191 530.571 337.042 534.063 330.549 536.731C325.393 538.888 319.219 541.278 313.474 540.292C305.647 538.966 302.15 529.922 301.518 522.972C300.761 514.913 302.604 506.928 303.542 498.982C305.11 486.173 303.153 473.628 290.975 467.005C284.594 463.574 277.386 461.99 270.378 460.419C261.395 458.415 252.625 456.226 244.155 452.555C232.674 447.48 222.006 440.759 211.99 433.28C207.219 429.757 202.653 426.147 197.555 423.002C192.45 419.957 187.239 417.005 182.573 413.389C181.915 412.744 181.349 413.707 181.921 414.146Z" fill="url(#paint9_linear_95_61)"/>
<path d="M192.564 404.949C205.677 421.445 221.426 436.016 241.464 443.465C255.93 448.84 272.398 448.342 286.365 455.185C303.821 463.763 300.06 482.331 297.784 498.196C296.244 509.105 295.143 528.352 308.999 532.384C319.218 535.372 331.734 528.102 340.265 523.468C353.267 516.431 365.272 507.825 378.274 500.788C383.79 497.754 390.116 496.076 395.095 492.105C401.65 487.038 405.568 479.492 409.458 472.345C414.049 463.743 419.104 455.673 426.844 449.384C434.159 443.467 442.835 439.644 451.895 437.548C471.964 432.687 492.372 436.157 512.763 435.422C533.86 434.633 554.827 429.832 571.758 416.551C571.472 416.332 571.193 416.013 570.908 415.793C571.787 414.651 571.072 410.398 571.194 408.605C571.369 406.014 571.909 403.948 572.863 401.709C576.462 392.94 583.159 385.781 587.051 377.132C595.415 358.672 598.832 337.778 612.042 321.745C621.756 309.982 636.021 303.53 650.496 299.896C659.975 297.528 675.281 294.95 680.802 285.91C683.506 281.486 681.343 276.436 679.531 272.109C675.994 263.663 670.495 256.087 664.123 249.553C657.565 242.807 649.935 237.09 641.612 232.728C635.032 229.283 627.996 228.111 621.169 225.351C608.876 220.422 598.645 208.724 589.343 199.592C579.01 189.389 569.004 178.807 557.906 169.554C553.826 166.177 549.546 162.787 544.573 160.752C540.87 159.202 537.027 158.244 533.424 156.701C527.873 154.326 522.462 151.361 517.257 148.309C498.253 137.425 480.099 127.298 457.466 128.584C447.004 129.184 436.806 131.804 426.774 134.936C415.818 138.406 405.179 143.099 393.645 144.729C369.062 148.186 344.814 140.755 321.002 135.755C301.44 131.641 280.09 125.805 261.552 136.175C247.911 143.77 241.155 157.733 240.529 172.907C240.027 183.285 242.346 193.451 243.759 203.657C244.889 212.142 246.536 221.863 243.369 230.16C239.216 241.194 230.933 251.05 223.603 260.169C205.992 282.014 185.915 301.791 168.397 323.742C165.987 326.784 163.064 329.992 162.096 333.932C160.855 338.954 162.286 344.456 163.864 349.267C168.793 363.813 178.158 376.454 183.605 390.734C185.98 397.1 186.135 402.216 193.029 405.481C193.707 405.827 194.08 404.751 193.402 404.405C186.116 401.013 185.36 391.452 182.214 384.634C178.975 377.71 175.117 371.044 171.679 364.106C168.226 357.368 164.795 350.33 163.298 342.822C162.2 336.842 163.301 332.411 166.831 327.642C182.372 306.76 201.55 288.424 218.334 268.426C226.617 258.569 235.019 248.421 241.288 237.228C243.12 233.847 244.958 230.367 245.62 226.507C247.465 217.02 245.28 206.362 243.912 196.96C241.056 178.449 239.053 157.692 253.851 143.367C271.111 126.705 294.523 131.678 315.589 135.793C337.937 140.194 360.204 147.292 383.189 146.731C405.768 146.242 425.484 134.75 447.388 130.912C459.455 128.818 471.758 129.142 483.44 132.728C493.945 135.935 503.483 141.58 513.028 147.125C521.703 152.211 530.577 157.311 540.184 160.457C545.476 162.214 549.923 164.614 554.396 168.117C566.206 177.218 576.378 188.311 586.896 198.727C596.099 207.853 605.54 217.896 616.92 224.465C622.031 227.411 627.89 228.204 633.361 230.272C642.642 233.798 651.097 239.17 658.573 245.677C666.135 252.391 672.812 260.347 677.306 269.458C680.565 276.083 683.798 283.107 677.215 288.572C667.87 296.355 654.056 297.632 642.707 300.975C628.903 305.056 616.179 313.913 607.968 325.676C597.086 341.365 593.684 360.558 585.82 377.55C581.949 385.9 575.857 393 571.885 401.343C570.133 405.03 569.929 409.521 570.052 413.634C570.104 414.338 570.393 418.962 572.044 416.77C572.483 416.199 571.719 415.648 571.193 416.013C554.575 429.114 533.814 433.829 513.023 434.538C496.15 435.109 479.373 432.783 462.605 434.763C446.642 436.696 431.114 442.563 420.175 454.643C408.372 467.667 404.868 488.355 387.337 495.689C375.474 500.701 364.873 507.799 353.993 514.578C342.707 521.429 329.997 530.088 316.647 531.896C309.57 532.823 304.359 529.871 300.986 523.438C296.99 515.862 298.109 506.727 299.26 498.595C301.154 485.408 305.246 469.364 294.122 459.008C283.47 449.084 266.332 449.137 252.92 445.935C228.372 439.985 209.313 423.991 193.901 404.438C192.958 403.574 192.099 404.417 192.564 404.949Z" fill="url(#paint10_linear_95_61)"/>
<path d="M203.114 395.646C205.838 405.74 208.603 415.235 216.843 422.295C223.661 428.157 232.337 431.742 241.007 433.925C255.682 437.712 273.4 436.497 286.447 445.08C302.751 455.883 295.423 476.815 293.46 492.501C292.113 503.523 293.187 521.715 307.138 524.352C318.807 526.636 332.303 518.23 341.891 512.766C355.239 505.051 367.771 496.081 381.219 488.373C386.742 485.239 393.081 483.361 398.339 479.709C405.592 474.69 410.208 467.19 414.339 459.459C419.049 450.564 423.367 441.544 430.755 434.531C437.612 427.983 446.228 423.555 455.408 421.167C496 410.673 543.351 440.977 578.761 409.313C579.294 408.848 578.55 407.997 578.017 408.462C575.695 410.209 573.401 395.239 573.422 393.438C573.152 384.11 578.727 374.272 580.937 365.311C585.663 345.806 590.636 319.71 609.055 308.131C619.729 301.438 633.615 302.069 645.833 300.685C651.992 299.997 658.265 299.116 664.205 297.212C667.791 296.05 672.408 294.458 674.446 290.99C676.938 286.753 673.432 280.811 671.586 276.984C667.716 269.016 662.183 261.938 655.677 255.896C649.458 250.073 642.479 245.1 634.814 241.383C628.606 238.364 621.537 237.69 615.647 234.392C604.825 228.461 596.023 217.86 587.711 208.894C577.812 198.219 568.338 187.173 557.893 177.162C554.132 173.507 550.264 169.944 545.851 167.045C540.381 163.475 533.652 162.223 527.828 159.43C508.71 150.24 492.009 136.407 470.091 134.537C459.829 133.649 449.506 135.159 439.508 137.793C428.492 140.658 418.046 145.464 407.044 148.13C383.103 153.934 358.855 146.502 335.689 140.845C316.267 136.139 294.41 131.871 275.64 141.225C262.366 147.843 255.178 160.776 253.995 175.313C253.241 184.973 255.101 194.508 256.462 204.009C257.691 212.501 259.81 222.654 256.743 230.957C253.036 241.32 245 250.492 238.222 258.848C220.638 280.294 200.688 299.679 182.626 320.793C176.967 327.421 171.688 332.874 174.167 342.15C177.679 355.399 187.319 366.957 194.67 378.262C198.29 384.011 201.338 389.32 203.114 395.646C203.266 396.357 204.484 396.138 204.232 395.421C200.778 382.776 191.663 372.354 184.79 361.382C179.092 352.29 170.152 339.278 177.757 329.076C184.482 320.016 192.444 311.94 200.12 303.645C209.639 293.271 219.252 283.004 228.586 272.417C237.168 262.581 245.856 252.652 252.816 241.606C254.947 238.245 257.099 234.585 258.266 230.659C260.334 223.79 259.178 215.704 258.247 208.734C255.81 189.95 250.522 168.873 263.552 152.528C277.468 134.94 302.986 135.449 322.961 139.391C345.509 143.806 367.588 152.193 390.78 151.545C412.461 150.996 431.592 139.264 452.93 136.39C465.062 134.801 477.212 135.915 488.734 140.392C499.185 144.396 508.49 150.525 518.241 155.984C522.203 158.152 526.165 160.32 530.253 162.095C534.049 163.751 537.992 164.716 541.788 166.372C546.555 168.494 550.608 172.269 554.382 175.726C564.762 185.231 573.957 195.958 583.471 206.407C591.962 215.685 600.519 225.469 610.734 232.961C614.455 235.713 617.972 237.05 622.401 238.248C631.656 240.671 640.258 245.352 647.788 251.062C655.889 257.211 663.184 264.908 668.29 273.86C671.245 279.063 677.149 288.068 671.02 292.763C666.474 296.262 659.783 297.416 654.308 298.35C648.428 299.358 642.575 299.966 636.636 300.369C624.038 301.427 610.909 302.949 601.742 312.546C587.935 327.037 583.826 347.785 579.246 366.599C577.164 375.169 572.061 383.937 572.06 392.846C571.969 397.145 572.942 402.015 574.275 406.009C574.945 407.956 576.239 411.046 578.662 409.306C578.383 408.987 578.197 408.775 577.918 408.456C546.028 436.951 503.771 414.297 466.744 418.022C450.701 419.65 435.432 426.135 425.152 438.86C413.446 453.392 410.036 474.187 391.353 482.244C379.384 487.349 368.663 494.739 357.77 501.717C345.519 509.505 332.702 518.257 318.605 522.217C313.496 523.677 307.523 524.578 302.831 521.36C294.789 515.816 293.595 505.324 294.294 496.461C295.471 482.024 302.75 464.793 294.349 451.216C286.387 438.569 268.631 437.379 255.338 435.386C245.124 433.801 234.744 431.703 225.565 426.683C220.439 423.937 215.774 420.321 212.387 415.589C207.983 409.587 206.267 402.365 204.345 395.228C204.086 394.61 202.969 394.836 203.114 395.646Z" fill="url(#paint11_linear_95_61)"/>
</g>
<g filter="url(#filter0_f_95_61)">
<circle cx="360.5" cy="320.263" r="106.5" fill="#CFFF65"/>
</g>
<defs>
<filter id="filter0_f_95_61" x="41" y="0.76268" width="639" height="639" filterUnits="userSpaceOnUse" color-interpolation-filters="sRGB">
<feFlood flood-opacity="0" result="BackgroundImageFix"/>
<feBlend mode="normal" in="SourceGraphic" in2="BackgroundImageFix" result="shape"/>
<feGaussianBlur stdDeviation="106.5" result="effect1_foregroundBlur_95_61"/>
</filter>
<linearGradient id="paint0_linear_95_61" x1="19.2218" y1="322.333" x2="743.301" y2="371.321" gradientUnits="userSpaceOnUse">
<stop stop-color="#BDEE60"/>
<stop offset="0.989583" stop-color="#005436"/>
</linearGradient>
<linearGradient id="paint1_linear_95_61" x1="36.0453" y1="319.338" x2="736.453" y2="366.724" gradientUnits="userSpaceOnUse">
<stop stop-color="#BDEE60"/>
<stop offset="0.989583" stop-color="#005436"/>
</linearGradient>
<linearGradient id="paint2_linear_95_61" x1="52.8059" y1="317.604" x2="729.678" y2="363.398" gradientUnits="userSpaceOnUse">
<stop stop-color="#BDEE60"/>
<stop offset="0.989583" stop-color="#005436"/>
</linearGradient>
<linearGradient id="paint3_linear_95_61" x1="68.8749" y1="316.876" x2="722.994" y2="361.131" gradientUnits="userSpaceOnUse">
<stop stop-color="#BDEE60"/>
<stop offset="0.989583" stop-color="#005436"/>
</linearGradient>
<linearGradient id="paint4_linear_95_61" x1="84.6337" y1="316.516" x2="716.314" y2="359.252" gradientUnits="userSpaceOnUse">
<stop stop-color="#BDEE60"/>
<stop offset="0.989583" stop-color="#005436"/>
</linearGradient>
<linearGradient id="paint5_linear_95_61" x1="99.4399" y1="316.474" x2="709.849" y2="357.771" gradientUnits="userSpaceOnUse">
<stop stop-color="#BDEE60"/>
<stop offset="0.989583" stop-color="#005436"/>
</linearGradient>
<linearGradient id="paint6_linear_95_61" x1="112.709" y1="316.22" x2="702.863" y2="356.147" gradientUnits="userSpaceOnUse">
<stop stop-color="#BDEE60"/>
<stop offset="0.989583" stop-color="#005436"/>
</linearGradient>
<linearGradient id="paint7_linear_95_61" x1="125.66" y1="316.063" x2="696.307" y2="354.67" gradientUnits="userSpaceOnUse">
<stop stop-color="#BDEE60"/>
<stop offset="0.989583" stop-color="#005436"/>
</linearGradient>
<linearGradient id="paint8_linear_95_61" x1="138.487" y1="315.729" x2="690.37" y2="353.067" gradientUnits="userSpaceOnUse">
<stop stop-color="#BDEE60"/>
<stop offset="0.989583" stop-color="#005436"/>
</linearGradient>
<linearGradient id="paint9_linear_95_61" x1="150.493" y1="315.897" x2="683.738" y2="351.973" gradientUnits="userSpaceOnUse">
<stop stop-color="#BDEE60"/>
<stop offset="0.989583" stop-color="#005436"/>
</linearGradient>
<linearGradient id="paint10_linear_95_61" x1="163.093" y1="315.668" x2="677.418" y2="350.464" gradientUnits="userSpaceOnUse">
<stop stop-color="#BDEE60"/>
<stop offset="0.989583" stop-color="#005436"/>
</linearGradient>
<linearGradient id="paint11_linear_95_61" x1="175.021" y1="315.202" x2="671.191" y2="348.77" gradientUnits="userSpaceOnUse">
<stop stop-color="#BDEE60"/>
<stop offset="0.989583" stop-color="#005436"/>
</linearGradient>
</defs>
</svg>
