<svg width="72" height="72" viewBox="0 0 72 72" fill="none" xmlns="http://www.w3.org/2000/svg">
<g clip-path="url(#clip0_1_124)">
<path d="M28.9148 12.28C27.3966 6.28 29.4565 0 35.9999 0C42.5433 0 44.6035 6.28 43.0852 12.28C42.496 14.608 41.5142 18.7005 40.5331 22.8377C39.3338 27.8952 38.7341 30.424 40.1551 31.8449C41.576 33.2659 44.1048 32.6662 49.1623 31.4668C53.2995 30.4857 57.392 29.5039 59.72 28.9148C65.72 27.3966 72 29.4565 72 35.9999C72 42.5433 65.72 44.6035 59.72 43.0852C57.392 42.496 53.2995 41.5142 49.1623 40.5331C44.1048 39.3338 41.576 38.7341 40.1551 40.1551C38.7341 41.576 39.3338 44.1048 40.5332 49.1623C41.5143 53.2995 42.4961 57.392 43.0852 59.72C44.6034 65.72 42.5435 72 36.0001 72C29.4567 72 27.3965 65.72 28.9149 59.72C29.504 57.392 30.4858 53.2995 31.4669 49.1623C32.6662 44.1048 33.2659 41.576 31.8449 40.1551C30.424 38.7341 27.8952 39.3338 22.8377 40.5332C18.7005 41.5143 14.608 42.4961 12.28 43.0852C6.28 44.6034 -9.91367e-07 42.5435 0 36.0001C8.58063e-07 29.4567 6.28 27.3965 12.28 28.9149C14.608 29.504 18.7005 30.4858 22.8377 31.4669C27.8952 32.6662 30.424 33.2659 31.8449 31.8449C33.2659 30.424 32.6662 27.8952 31.4668 22.8377C30.4857 18.7005 29.5039 14.608 28.9148 12.28Z" fill="white"/>
<path d="M18 26.28C22.5729 26.28 26.28 22.5729 26.28 18C26.28 13.4271 22.5729 9.72 18 9.72C13.4271 9.72 9.72 13.4271 9.72 18C9.72 22.5729 13.4271 26.28 18 26.28Z" fill="white"/>
<path d="M54 26.28C58.5729 26.28 62.28 22.5729 62.28 18C62.28 13.4271 58.5729 9.72 54 9.72C49.4271 9.72 45.72 13.4271 45.72 18C45.72 22.5729 49.4271 26.28 54 26.28Z" fill="white"/>
<path d="M26.28 54C26.28 58.5729 22.5729 62.28 18 62.28C13.4271 62.28 9.72 58.5729 9.72 54C9.72 49.4271 13.4271 45.72 18 45.72C22.5729 45.72 26.28 49.4271 26.28 54Z" fill="white"/>
<path d="M54 62.28C58.5729 62.28 62.28 58.5729 62.28 54C62.28 49.4271 58.5729 45.72 54 45.72C49.4271 45.72 45.72 49.4271 45.72 54C45.72 58.5729 49.4271 62.28 54 62.28Z" fill="white"/>
</g>
<defs>
<clipPath id="clip0_1_124">
<rect width="72" height="72" fill="white"/>
</clipPath>
</defs>
</svg>
