<svg width="75" height="75" viewBox="0 0 75 75" fill="none" xmlns="http://www.w3.org/2000/svg">
<path d="M31.2745 69.7848C35.948 56.8538 38.2848 50.3883 43.5967 46.9257C48.9086 43.4631 55.7672 43.9345 69.4844 44.8772L74.7259 45.2374L69.7848 43.4516C56.8539 38.7782 50.3884 36.4414 46.9258 31.1295C43.4631 25.8176 43.9345 18.959 44.8772 5.24179L45.2375 0.000146089L43.4517 4.94128C38.7782 17.8722 36.4414 24.3377 31.1295 27.8004C25.8176 31.263 18.959 30.7916 5.24179 29.8489L0 29.4886L4.94132 31.2745C17.8723 35.948 24.3378 38.2847 27.8004 43.5966C31.263 48.9085 30.7917 55.7672 29.8489 69.4844L29.4887 74.726L31.2745 69.7848Z" fill="#1B660D"/>
</svg>
