<svg width="46" height="46" viewBox="0 0 46 46" fill="none" xmlns="http://www.w3.org/2000/svg">
<rect x="0.544922" y="0.306152" width="45.4549" height="45.4549" rx="22.7275" fill="#1A3806"/>
<path d="M17.3521 33.7542H12.9059V19.4395H17.3521V33.7542ZM15.1266 17.4868C13.7052 17.4868 12.5518 16.3095 12.5518 14.8881C12.5518 14.2052 12.823 13.5503 13.3059 13.0674C13.7888 12.5845 14.4437 12.3132 15.1266 12.3132C15.8095 12.3132 16.4644 12.5845 16.9473 13.0674C17.4301 13.5503 17.7014 14.2052 17.7014 14.8881C17.7014 16.3095 16.548 17.4868 15.1266 17.4868ZM33.988 33.7542H29.5514V26.7859C29.5514 25.1252 29.5179 22.9954 27.2398 22.9954C24.9282 22.9954 24.574 24.7997 24.574 26.6663V33.7542H20.1327V19.4395H24.397V21.3922H24.4592C25.0526 20.2675 26.5028 19.0805 28.666 19.0805C33.1648 19.0805 33.9928 22.043 33.9928 25.8909V33.7542H33.988Z" fill="white"/>
</svg>
