<svg width="72" height="72" viewBox="0 0 72 72" fill="none" xmlns="http://www.w3.org/2000/svg">
<path fill-rule="evenodd" clip-rule="evenodd" d="M36.1809 36.6863C38.7861 45.2491 46.7454 51.4799 56.1599 51.4799C61.6263 51.4799 66.602 49.3793 70.324 45.9413C70.7337 45.5628 71.4103 45.7378 71.5273 46.2832C71.837 47.7265 71.9999 49.2241 71.9999 50.7599C71.9999 62.4904 62.4905 71.9999 50.7599 71.9999C39.0294 71.9999 29.5199 62.4904 29.5199 50.7599C29.5199 45.1153 31.7217 39.985 35.3134 36.181C26.7505 38.7862 20.5197 46.7455 20.5197 56.16C20.5197 61.6264 22.6203 66.6021 26.0583 70.324C26.4368 70.7338 26.2618 71.4104 25.7164 71.5274C24.2732 71.837 22.7755 72 21.2398 72C9.50924 72 -0.000239871 62.4905 -0.000240897 50.76C-0.000241922 39.0294 9.50924 29.52 21.2398 29.52C26.8844 29.52 32.0147 31.7218 35.8187 35.3134C33.2134 26.7506 25.2542 20.5198 15.8396 20.5198C10.3733 20.5198 5.39754 22.6204 1.67559 26.0584C1.26584 26.4369 0.589247 26.2619 0.472243 25.7165C0.162622 24.2733 -0.000366211 22.7756 -0.000366211 21.2398C-0.0003674 9.50931 9.50911 -0.000179963 21.2397 -0.000180475C32.9702 -0.000180988 42.4797 9.5093 42.4797 21.2398C42.4797 26.8844 40.2779 32.0147 36.6862 35.8187C45.249 33.2135 51.4798 25.2542 51.4798 15.8397C51.4798 10.3733 49.3792 5.3976 45.9412 1.67565C45.5627 1.26591 45.7377 0.589309 46.2831 0.472305C47.7264 0.162683 49.2241 -0.000305176 50.7598 -0.000305176C62.4903 -0.000305176 71.9998 9.50918 71.9998 21.2397C71.9998 32.9703 62.4903 42.4797 50.7598 42.4797C45.1152 42.4797 39.9849 40.2779 36.1809 36.6863Z" fill="white"/>
</svg>
