<svg width="404" height="618" viewBox="0 0 404 618" fill="none" xmlns="http://www.w3.org/2000/svg">
<g opacity="0.3">
<path d="M12.8943 393.775C14.1517 407.774 18.7549 421.197 28.4685 431.659C37.4313 441.37 49.4299 447.68 61.8559 452.117C79.8667 458.43 98.925 461.109 117.905 461.981C140.689 462.907 163.801 461.954 186.223 466.76C228.599 475.807 267.25 499.922 303.156 523.151C311.511 528.517 319.506 534.759 325.364 542.96C332.325 552.637 334.27 563.879 334.884 575.533C335.139 580.656 335.365 587.679 340.377 590.617C345.775 593.782 354.158 589.839 359.242 587.277C373.141 580.3 381.759 566.962 389.16 553.843C397.487 538.884 405.708 524.019 416.242 510.509C439.387 480.926 470.826 457.606 508.023 449.888C529.569 445.426 553.651 444.937 574.854 451.464C593.604 457.226 609.408 469.498 627.677 476.428C649.364 484.69 663.833 466.338 672.442 448.695C683.05 426.681 688.093 402.493 694.679 379.208C707.049 335.588 720.424 291.936 737.01 249.7C744.516 230.582 752.162 210.872 752.966 190.103C753.654 172.53 748.575 155.772 739.152 141.024C721.865 113.637 692.024 91.1142 659.881 84.8552C637.632 80.4607 614.825 82.8362 592.314 80.8268C570.096 78.9371 550.71 70.7301 531.613 59.7393C514.244 49.8656 497.155 38.8093 477.92 32.8148C459.271 27.0598 439.552 26.7392 420.481 30.166C399.282 33.9508 379.489 42.1345 359.105 48.6769C337.903 55.4647 315.529 57.3687 293.343 56.4823C271.756 55.636 250.43 52.4045 229.091 49.3724C218.472 47.8597 207.852 46.347 197.205 45.233C186.459 44.1122 175.652 43.8883 164.885 43.0666C157.211 42.452 150.516 39.2002 143.962 35.3572C140.107 33.0966 135.794 30.2047 131.191 30.0964C126.39 29.9748 122.456 33.315 119.52 36.7222C113.874 43.1512 110.123 51.2089 107.96 59.4731C97.976 97.4463 120.313 136.084 109.345 173.791C104.908 189.011 97.4263 203.326 89.5859 217.016C81.3923 231.483 72.3279 245.491 63.0774 259.287C55.3719 270.984 47.2808 282.455 40.539 294.717C31.9787 310.161 24.8541 326.602 19.804 343.482C14.7081 359.559 11.6464 376.672 12.8943 393.775C12.9468 394.479 14.0643 394.254 14.0118 393.549C11.3448 357.431 26.5096 319.905 44.6142 289.284C59.6682 263.764 77.6001 240.139 92.0758 214.279C99.1437 201.639 105.953 188.38 110.003 174.436C114.686 158.532 113.205 141.915 110.892 125.742C108.031 105.829 103.886 85.629 107.449 65.5456C109.555 53.6736 119.098 25.1812 135.965 32.1182C141.13 34.2664 145.603 37.7697 150.755 40.1172C157.749 43.3891 164.632 43.8505 172.226 44.1593C193.308 45.0719 214.241 48.1769 235.089 51.0759C275.579 56.8933 317.413 62.1001 357.315 49.9584C377.06 43.9738 396.042 35.936 416.263 31.7854C437.197 27.4823 458.645 27.4183 479.13 34.1973C498.151 40.3777 514.934 51.5136 532.21 61.281C549.008 70.7161 566.219 78.477 585.49 80.97C607.049 83.7165 628.839 81.5731 650.305 84.2133C668.492 86.4335 685.179 93.058 700.32 103.283C731.373 124.185 755.244 157.92 751.018 196.68C748.725 217.249 740.507 236.52 733.1 255.645C725.214 275.939 718.391 296.805 711.775 317.585C701.603 349.439 693.007 381.699 683.72 413.812C680.338 425.298 676.549 436.857 671.305 447.718C666.528 457.609 660.18 468.496 650.378 474.146C637.655 481.502 624.414 474.308 612.801 468.223C596.342 459.712 580.841 450.364 562.308 447.32C525.642 441.258 487.606 449.52 456.841 470.283C428.705 489.22 407.93 516.359 391.901 545.918C384.786 559.256 377.291 573.77 364.36 582.715C357.106 587.734 340.505 596.132 337.059 583.387C334.818 575.028 336.024 566.099 333.69 557.633C328.944 540.397 315.261 529.369 300.758 520.087C283.463 509.117 266.055 498.34 247.754 488.904C229.739 479.688 210.952 471.521 191.244 466.596C170.353 461.392 148.798 461.549 127.39 461.015C107.385 460.475 87.5612 458.745 68.3129 452.95C54.4634 448.818 40.6557 442.587 30.3436 432.085C20.1312 421.59 15.2422 407.947 13.912 393.543C13.9592 392.845 12.8417 393.07 12.8943 393.775Z" fill="url(#paint0_linear_1_216)"/>
<path d="M96.3152 449.323C117.666 453.658 139.461 452.916 161.101 454.467C183.24 456.051 203.891 461.84 224.128 470.805C243.686 479.423 262.191 490.274 280.49 501.212C288.773 506.172 297.261 511.045 305.423 516.298C313.2 521.324 320.716 527.234 325.171 535.441C329.885 544.266 329.603 554.358 331.257 563.98C332.242 570.152 334.818 575.03 341.095 577.053C348.448 579.448 353.333 575.37 359.582 571.885C366.967 567.875 373.922 562.835 380.119 557.144C392.3 545.947 401.151 532.125 410.674 518.747C421.076 504.228 432.92 490.606 446.445 478.799C475.745 453.032 512.371 437.467 551.748 439.006C562.242 439.409 572.543 441.2 582.409 444.965C591.298 448.364 599.713 452.832 608.262 456.809C618.56 461.604 630.272 467.695 641.53 462.743C650.412 458.833 656.512 450.132 661.168 442.035C666.977 431.713 671.038 420.572 674.6 409.399C677.648 399.892 680.097 390.346 682.846 380.82C688.837 360.398 695.32 340.11 702.196 319.948C708.951 300.079 715.52 279.997 723.838 260.732C731.336 243.215 740.224 225.891 743.999 207.123C747.473 189.837 745.214 172.867 737.162 157.111C729.905 142.909 719.223 130.48 706.988 120.25C694.561 109.907 680.197 101.536 664.678 96.8915C646.108 91.4421 626.13 90.5035 607.038 88.3228C586.257 85.9287 565.85 82.4585 546.824 73.3746C529.447 65.1021 513.562 54.0263 496.091 45.6474C478.429 37.1555 459.578 32.8886 439.864 33.9698C420.756 34.9916 402.149 40.4518 384.094 46.6496C374.148 49.9874 364.468 53.8435 354.276 56.3639C343.879 58.9705 333.363 60.368 322.702 60.9548C302.084 62.0756 281.382 59.9872 261.027 57.2212C240.373 54.4353 219.772 50.852 198.951 49.0559C189.587 48.2281 179.517 48.9546 170.502 45.9477C164.625 43.952 159.54 40.6078 153.903 38.0276C142.435 32.754 134.215 40.2118 128.147 49.9162C119.382 63.9447 117.617 81.1454 118.733 97.2377C120.13 118.054 126.157 138.58 125.033 159.628C124.323 173.095 118.957 185.75 112.934 197.76C99.2683 224.975 81.2555 249.796 64.3197 274.99C46.9107 301.253 35.065 331.193 30.9461 362.451C28.9304 377.433 28.5297 393.724 33.9767 408.004C38.402 419.613 46.7933 428.885 57.3819 435.301C69.1203 442.495 82.684 446.407 96.1224 449.21C96.814 449.357 97.1874 448.28 96.4958 448.134C69.034 442.289 40.1677 430.543 32.8796 400.522C28.8844 384.037 30.8961 366.152 34.2032 349.855C37.7569 332.875 43.3988 316.134 50.8753 300.417C62.7762 275.587 80.886 253.776 95.4789 230.627C109.506 208.442 125.936 183.315 126.267 156.207C126.792 120.303 106.846 77.4202 132.64 45.7124C137.234 40.0138 142.944 35.5912 150.491 38.0992C155.583 39.8421 160.076 43.0465 164.936 45.2743C171.836 48.4398 178.4 49.1801 185.895 49.4822C195.984 49.9582 206.138 50.9392 216.173 52.2125C255.028 57.0193 294.212 65.8526 333.595 61.3846C372.978 56.9166 407.874 34.3283 448.31 35.0365C469.126 35.4307 488.101 42.3087 506.075 52.123C522.022 60.8002 537.163 71.0252 554.036 77.8624C571.979 85.1719 591.45 87.6783 610.542 89.859C629.441 91.9267 649.319 92.8587 667.543 98.9855C698.406 109.363 727.559 134.643 739.522 165.178C754.636 203.932 729.276 241.075 716.269 276.343C703.021 312.195 690.537 348.599 680.228 385.449C674.29 406.575 668.848 429.235 656.182 447.607C650.515 455.837 642.261 463.793 631.56 463.476C624.158 463.281 616.6 459.47 609.999 456.325C601.642 452.461 593.519 448.112 584.936 444.634C551.868 431.305 511.666 437.52 480.619 453.559C451.436 468.722 427.478 492.544 408.639 519.212C398.889 532.974 389.725 546.976 376.946 558.132C370.024 564.176 362.404 568.67 354.393 573.039C349.922 575.442 346.574 577.52 341.282 575.764C335.405 573.768 333.101 569.309 332.189 563.542C330.839 555.342 330.92 546.738 327.848 538.824C325.208 531.939 320.478 526.317 314.882 521.637C308.343 516.093 300.705 511.977 293.387 507.582C284.719 502.396 276.151 497.217 267.377 492.124C250.7 482.396 233.682 473.247 215.832 466.044C196.812 458.362 177.555 454.168 156.999 452.89C136.636 451.726 116.072 452.049 96.0038 448.001C95.6048 447.974 95.5239 449.17 96.3152 449.323Z" fill="url(#paint1_linear_1_216)"/>
<path d="M106.852 440.22C127.006 444.474 147.677 444.058 168.179 446.133C189.572 448.368 209.245 455.293 228.456 464.589C246.89 473.533 264.312 484.111 282.067 494.211C295.474 501.917 314.156 508.676 321.897 523.11C326.16 531.204 325.746 540.286 326.748 549.163C327.375 554.711 328.213 561.575 333.957 564.062C339.116 566.31 347.855 565.995 353.171 564.449C355.626 563.713 357.436 562.132 359.153 560.445C362.808 556.786 367.624 555.207 372.103 552.704C385.544 545.095 396.508 534.117 406.421 522.368C417.527 509.298 428.047 495.987 440.382 484C453.142 471.641 467.132 460.365 482.563 451.489C490.282 447.001 498.366 443.037 506.703 439.792C516.27 436.129 526.227 434.093 536.344 432.669C546.561 431.251 557.123 430.658 567.344 432.144C577.465 433.623 586.925 437.461 596.379 441.398C607.195 445.927 620.968 454.159 633.089 449.765C641.818 446.646 647.877 438.543 652.4 430.938C658.288 420.921 662.342 409.88 665.99 398.912C669.138 389.413 671.701 379.674 674.656 370.061C680.892 350.457 687.621 330.986 694.741 311.642C701.482 293.473 708.043 274.992 716.532 257.641C724.421 241.752 733.607 225.95 737.101 208.365C743.482 176.257 723.039 146.655 698.974 127.623C686.799 117.997 672.7 110.145 657.627 106.331C639.501 101.713 620.749 98.9541 602.477 95.0264C583.905 91.0785 564.721 87.2899 547.324 79.3163C530.312 71.5688 514.813 60.7191 498.034 52.4866C481.162 44.1478 463.137 39.5358 444.255 40.1723C425.772 40.8355 407.897 45.8442 390.567 51.6902C380.927 54.9483 371.553 58.7249 361.661 61.2653C351.357 63.9784 340.827 65.5751 330.265 66.1686C310.346 67.3361 290.442 65.3013 270.692 62.4758C251.035 59.7567 231.532 56.247 211.715 54.4181C202.551 53.6037 193.1 54.0714 184.291 50.9782C178.713 49.0025 173.715 45.8644 168.143 43.789C156.322 39.2927 147.629 47.82 141.575 57.325C133.149 70.7757 131.232 87.2654 132.381 102.859C133.885 123.583 140.018 144.016 138.297 165.024C137.254 177.468 131.537 189.398 125.688 200.318C112.257 225.547 95.0636 248.621 78.8409 272.16C71.7353 282.396 65.3279 292.678 60.6284 304.376C54.5889 319.589 50.5903 335.739 48.3873 352.009C44.7713 378.796 45.1157 409.253 69.8408 425.927C80.854 433.472 93.9257 437.252 106.852 440.22C107.543 440.367 107.917 439.291 107.225 439.144C93.7006 436.135 79.8511 432.003 68.5858 423.74C57.4136 415.583 50.8072 403.628 48.8246 389.98C46.5252 373.608 48.3899 356.414 51.484 340.303C54.5713 324.293 59.3612 308.296 66.7635 293.675C71.9738 283.313 79.1186 273.981 85.7713 264.516C93.8691 252.946 102.067 241.382 109.786 229.485C117.165 218.167 124.259 206.629 130.196 194.414C135.086 184.33 139.2 173.894 139.669 162.513C141.357 127.187 120.891 86.0717 145.275 54.4696C149.67 48.7576 155.801 42.5613 163.627 43.8868C169.273 44.8659 174.351 48.3096 179.41 50.5508C185.732 53.3772 191.969 54.4961 198.859 54.8578C208.642 55.4134 218.297 56.361 228.026 57.7138C265.179 62.5067 302.581 71.0203 340.254 66.638C359.749 64.3408 377.36 57.3121 395.908 51.2473C414.043 45.3551 432.795 40.7056 451.988 41.3914C471.98 42.1308 490.043 49.1479 507.333 58.7161C522.495 67.1405 537.078 76.7274 553.173 83.2122C570.152 89.9565 588.658 93.3993 606.445 97.0943C623.933 100.769 642.007 103.182 659.215 108.04C689.793 116.696 718.435 140.64 731.404 169.641C739.242 187.085 738.448 204.751 731.834 222.527C725.82 238.843 716.396 253.728 709.804 269.704C695.566 303.888 682.658 339.163 672.045 374.591C665.94 395.205 660.626 417.474 648.193 435.361C642.645 443.298 634.525 450.763 624.164 449.868C615.898 449.114 607.562 444.951 599.963 441.739C591.679 438.28 583.409 434.622 574.639 432.433C556.7 428.027 537.889 430.57 520.089 434.483C503.818 437.997 488.341 446.07 474.506 455.053C447.369 472.555 426.929 496.213 406.336 520.661C395.551 533.453 383.715 545.473 368.664 553.174C365.337 554.953 361.864 555.922 359.182 558.545C355.847 561.925 352.832 563.525 348.097 563.909C344.266 564.253 340.235 564.583 336.392 563.625C330.281 562.114 328.943 556.718 328.01 551.25C326.747 543.257 327.407 534.992 324.82 527.31C322.81 521.469 319.13 516.617 314.492 512.602C309.096 507.936 302.714 504.505 296.525 501.187C288.409 496.739 280.306 492.091 272.31 487.35C239.719 468.447 206.371 448.893 168.153 445.03C147.851 442.968 127.273 443.491 107.125 439.137C106.54 438.898 106.16 440.074 106.852 440.22Z" fill="url(#paint2_linear_1_216)"/>
<path d="M117.588 431.13C136.738 435.417 156.391 435.233 175.742 438.032C196.283 441.01 215.057 449.377 233.251 458.905C250.281 467.855 266.739 477.868 283.663 486.911C296.433 493.674 313.421 498.817 319.566 513.144C322.944 520.979 321.958 529.622 322.603 537.874C322.964 542.904 323.655 550.459 328.354 553.577C332.761 556.575 339.473 555.123 344.256 554.042C350.049 552.828 357.392 552.42 362.078 548.329C364.215 546.37 365.687 543.866 367.73 541.8C371.165 538.426 376.807 536.502 380.886 533.972C388.106 529.451 394.854 524.497 401.337 519.025C414.083 508.367 425.327 496.207 437.422 484.804C449.942 473.029 463.221 461.906 477.595 452.358C492.501 442.345 509.51 432.373 527.111 428.447C536.983 426.206 546.761 423.858 556.91 423.437C567.166 422.923 576.947 424.98 586.654 428.134C595.384 430.921 603.867 434.393 612.844 436.496C617.285 437.495 621.462 437.975 625.773 436.462C634.082 433.615 639.915 425.897 644.211 418.677C650.093 408.76 654.14 397.819 657.681 386.944C660.956 377.053 663.739 367.028 667.106 357.243C673.574 338.655 680.535 320.201 687.98 301.98C695.059 284.735 702.131 267.59 711.537 251.502C719.463 238.018 728.129 223.982 730.597 208.23C735.207 178.607 711.955 150.519 689.511 134.198C677.289 125.27 663.694 118.853 648.886 115.558C631.605 111.797 614.717 106.66 597.836 101.424C581.247 96.3079 563.693 92.128 547.724 85.2513C530.593 77.796 515.193 66.9531 498.421 58.6209C482.62 50.7543 465.898 46.1296 448.24 46.4477C430.482 46.7591 413.24 51.3096 396.528 56.8968C377.668 63.1408 359.785 69.7506 339.738 71.3101C319.798 72.7766 299.795 70.7351 280.052 67.81C260.901 65.0246 241.896 61.5484 222.678 59.7596C214.112 58.9853 205.593 59.0149 197.382 55.9618C191.811 53.8865 186.613 50.735 180.795 49.3439C168.667 46.4287 159.113 57.3009 153.657 66.8461C146.163 79.8586 144.706 95.4781 145.909 110.275C147.687 129.915 153.561 149.731 151.215 169.595C149.841 181.016 144.085 192.042 138.602 201.986C125.372 225.726 108.872 247.445 93.0498 269.51C86.6303 278.49 80.1178 287.364 75.8187 297.587C69.9667 311.511 66.94 326.625 65.1306 341.52C62.128 366.646 59.6173 399.314 82.1073 416.439C92.5017 424.243 105.267 428.102 117.588 431.13C118.28 431.277 118.653 430.201 117.962 430.054C105.142 426.993 91.8844 423.001 81.5371 414.498C70.1533 405.026 66.0421 391.736 65.204 377.464C64.254 361.884 65.3193 346.138 67.9604 330.798C70.4545 316.149 74.2927 300.889 81.9794 287.989C87.3016 278.936 93.8802 270.567 99.9667 262.065C107.811 251.279 115.662 240.392 123.121 229.38C130.467 218.56 137.533 207.421 143.436 195.703C147.714 187.28 151.726 178.339 152.666 168.892C156.223 134.092 134.976 95.6268 157.178 63.6784C161.507 57.4614 168.125 49.9963 176.445 49.9533C181.958 49.9224 187.07 52.8679 192.036 55.0028C206.635 61.3872 222.717 60.6632 238.311 62.7096C274.459 67.5352 310.757 76.0749 347.426 71.7253C366.216 69.481 383.328 62.419 401.151 56.706C418.354 51.252 436.175 47.0406 454.364 47.7592C473.65 48.5514 491.108 55.6281 507.819 64.8571C522.496 73.0488 536.601 82.3033 552.324 88.3627C568.147 94.4287 584.896 98.6548 600.993 103.638C617.289 108.635 633.605 113.332 650.188 117.047C680.097 123.757 708.076 145.654 722.376 172.741C730.549 188.205 732.37 204.245 726.343 220.759C720.682 236.297 710.86 249.654 703.358 264.268C695.389 279.852 689.056 296.446 682.643 312.734C676.124 329.116 669.79 345.71 664.348 362.464C657.772 382.646 652.983 404.549 640.656 422.343C635.216 430.187 627.401 437.572 617.074 436.179C599.492 433.9 583.938 423.847 565.996 422.444C557.225 421.756 548.425 422.968 539.797 424.593C531.775 426.157 523.76 427.622 516.142 430.615C500.8 436.695 486.321 444.834 472.751 454.336C459.082 463.831 446.423 474.696 434.321 486.198C423.078 496.857 412.487 508.26 400.486 518.268C393.371 524.198 385.891 529.603 378.052 534.383C374.812 536.368 370.607 537.788 367.745 540.099C365.096 542.224 363.557 545.725 360.901 547.95C357.826 550.447 353.902 550.684 350.237 551.54C346.671 552.402 343.106 553.264 339.361 553.814C335.922 554.284 331.585 554.694 328.635 552.394C325.019 549.549 324.333 543.396 323.918 539.164C323.134 531.503 324.072 523.557 321.871 516.101C320.24 510.586 317.052 505.868 312.799 502.079C308.168 497.964 302.55 495.085 297.026 492.312C289.461 488.601 282.102 484.804 274.764 480.709C243.376 463.288 212.037 442.166 175.823 436.836C156.572 434.044 137.019 434.235 117.968 429.955C117.277 429.808 116.903 430.884 117.588 431.13Z" fill="url(#paint3_linear_1_216)"/>
<path d="M128.325 422.04C147.448 426.726 167.307 426.455 186.443 430.941C205.68 435.434 223.547 445.342 240.637 454.896C256.086 463.54 271.287 472.868 287.448 479.858C300.299 485.424 315.051 491.018 318.116 506.44C319.619 513.849 318.508 521.383 319.007 528.825C319.368 533.854 320.299 540.824 324.48 544.208C327.995 547.046 333.157 546.291 337.228 545.363C343.733 543.997 349.828 541.302 356.068 539.418C361.49 537.779 365.282 536.531 368.904 531.869C374.058 525.307 379.616 520.173 386.364 515.22C399.974 505.12 414.952 497.014 428.655 487.02C441.931 477.399 454.285 466.614 467.662 456.999C482.509 446.382 498.1 436.615 514.668 428.716C518.394 426.963 522.126 425.111 526.032 423.671C530.662 421.879 535.638 420.911 540.434 419.631C549.721 417.15 559.22 414.483 568.983 415.338C578.951 416.106 588.558 419.253 598.326 421.509C604.144 422.9 610.627 424.836 616.514 423.729C625.041 422.098 631.054 414.693 635.33 407.772C641.184 398.253 645.211 387.611 648.825 377.142C652.326 366.865 655.329 356.555 659.122 346.397C665.716 328.92 672.901 311.582 680.665 294.583C687.715 279.238 694.925 264.505 704.481 250.63C712.373 239.145 721.116 226.917 723.47 212.86C725.804 199.101 720.31 185.518 712.965 174.114C705.082 161.772 694.577 151.158 682.62 142.748C670.471 134.225 657.593 129.057 643.304 125.496C627.825 121.756 613.013 115.557 598.38 109.671C583.455 103.665 568.383 98.3503 553.211 93.0286C536.377 87.095 521.529 76.9897 505.974 68.4389C490.998 60.2271 475.089 53.9551 457.831 52.7983C440.268 51.7212 422.98 55.4677 406.295 60.6563C388.38 66.2629 371.354 73.5309 352.571 75.6755C333.382 77.8932 314.056 76.1974 295.091 73.6248C276.425 71.0722 257.833 67.4233 239.041 65.2627C230.19 64.2689 221.271 64.2718 212.748 61.398C207.163 59.522 201.845 56.6628 196.02 55.3714C183.872 52.7551 174 62.4047 167.946 71.9098C160.087 84.3972 158.157 99.5847 159.288 113.976C160.793 133.198 166.808 152.422 164.489 171.888C163.282 182.318 157.906 192.169 152.89 201.143C139.913 224.099 123.566 245.028 107.805 266.196C102.072 273.92 95.6333 281.698 91.2426 290.313C84.7866 302.795 82.4987 317.357 81.1625 331.183C79.7386 346.304 79.9041 361.632 81.2868 376.741C82.4 388.429 86.0812 399.187 95.1654 407.104C104.642 415.147 116.702 419.059 128.325 422.04C129.017 422.187 129.39 421.111 128.698 420.964C116.185 417.823 102.848 413.525 93.6651 404.1C83.5457 393.711 82.4811 379.825 81.9085 366.071C80.6366 338.956 81.1981 306.959 97.0015 283.692C110.028 264.443 124.776 246.41 137.995 227.275C145.1 217.039 151.92 206.584 157.584 195.451C161.621 187.613 165.286 179.349 165.986 170.487C168.757 136.935 148.474 99.0357 171.746 69.0611C176.573 62.8775 183.443 56.1301 191.856 56.1935C197.762 56.289 203.472 59.2746 208.844 61.3366C223.497 66.9238 239.957 66.5255 255.438 68.7644C290.263 73.9018 325.789 81.9894 361.077 75.8453C378.824 72.7301 395.371 65.1297 412.64 60.1806C429.604 55.3111 447.237 52.3886 464.913 54.7746C499.664 59.5066 525.438 85.8612 558.33 95.8744C587.684 104.85 615.004 120.196 644.999 127.112C674.401 133.888 701.59 154.13 715.712 180.905C723.26 195.226 725.182 209.771 718.751 224.857C712.805 238.674 702.812 250.117 695.126 263.017C686.986 276.687 680.754 291.786 674.362 306.274C667.724 321.446 661.273 336.831 655.805 352.482C648.843 372.438 644.213 394.952 631.129 412.095C628.166 415.901 624.611 419.567 620.074 421.465C613.574 424.233 606.3 422.144 599.69 420.599C591.598 418.756 583.746 416.327 575.52 414.975C567.002 413.503 558.948 414.064 550.507 415.901C542.877 417.592 534.555 419.137 527.25 421.951C519.027 425.003 511.036 429.073 503.338 433.262C488.985 441.009 475.449 450.013 462.379 459.548C449.934 468.725 438.212 479.052 425.588 487.916C412.018 497.418 397.553 505.358 384.349 515.385C378.645 519.708 373.447 523.964 369.245 529.789C366.601 533.316 364.005 536.145 359.615 537.353C357.06 538.083 354.406 538.806 351.845 539.635C345.591 541.719 339.191 544.493 332.546 544.949C323.587 545.55 321.014 537.669 320.23 530.008C318.998 517.111 322.322 503.519 312.708 493.064C304.869 484.529 292.867 481.222 282.676 476.335C249.87 460.621 219.353 436.251 183.073 428.914C165.08 425.305 146.651 425.171 128.705 420.865C128.014 420.718 127.64 421.794 128.325 422.04Z" fill="url(#paint4_linear_1_216)"/>
<path d="M139.069 412.851C157.38 417.682 176.6 417.969 194.531 423.976C212.562 429.99 229.1 440.309 245.604 449.624C259.696 457.576 273.929 464.937 289.067 470.757C302.935 476.092 314.873 483.299 315.576 499.564C316.072 510.008 311.594 527.327 320.977 535.264C327.795 541.127 340.244 534.854 347.051 532.007C352.619 529.677 358.002 527.134 363.73 525.416C369.052 523.771 372.367 520.689 375.477 516.193C385.14 502.224 399.194 492.955 413.973 484.836C427.194 477.513 440.482 470.695 453.259 462.542C467.499 453.485 481.647 444.323 496.253 435.791C504.285 431.124 512.402 426.663 520.7 422.514C524.539 420.568 528.371 418.723 532.197 416.977C536.335 415.052 540.799 414.25 545.209 412.744C553.206 410.076 561.05 406.698 569.563 406.768C579.073 406.905 588.548 409.042 598.005 409.976C603.378 410.536 608.937 411.309 614 409.046C617.52 407.38 620.509 404.677 623.012 401.741C629.983 393.499 634.202 382.97 637.982 373.012C641.776 362.855 644.792 352.345 648.685 342.195C655.018 325.601 662.635 309.293 670.717 293.517C677.639 280.066 684.462 266.608 694.076 254.839C702.492 244.491 712.332 233.838 715.928 220.664C719.385 208.082 714.522 195.543 708.134 184.803C700.935 172.708 690.923 162.226 679.564 153.857C667.92 145.267 655.276 139.615 641.28 136.174C627.283 132.733 614.108 126.043 601.211 119.673C588.122 113.189 575.074 106.108 561.285 101.079C554.144 98.4984 546.871 96.4091 539.877 93.1372C531.813 89.3932 524.203 84.8787 516.592 80.3642C502.42 72.1063 487.936 64.0276 471.625 60.7319C455.015 57.4161 438.061 59.1828 421.749 63.2952C403.902 67.9052 386.922 75.9772 368.849 79.4709C350.37 83.0376 331.483 82.2722 312.903 79.9256C294.716 77.7054 276.629 73.9904 258.462 71.4712C249.432 70.1651 240.015 70.1346 231.251 67.8453C224.748 66.2081 218.639 63.1957 212.123 61.7578C200.068 59.2479 190.025 66.984 183.179 76.3359C174.569 88.0722 172.062 102.921 172.906 117.093C173.967 135.484 179.471 153.372 178.216 171.908C177.535 181.974 172.798 191.267 167.909 199.849C155.399 221.835 139.419 241.787 124.031 261.879C117.985 269.782 111.739 277.673 106.265 286.015C99.6713 296.085 97.5519 308.156 96.6566 319.909C95.5724 334.452 96.3836 349.123 97.8068 363.634C98.8863 375.82 99.653 388.184 108.543 397.49C116.582 406.038 128.151 409.816 139.069 412.851C139.753 413.097 140.134 411.921 139.442 411.774C127.54 408.474 114.509 404.097 106.784 393.868C98.6934 383.115 99.0401 367.621 98.1076 354.744C97.0039 339.954 96.5257 324.806 98.9201 310.15C100.7 298.657 105.138 289.344 111.883 279.985C125.594 260.982 140.542 242.963 153.967 223.741C165.062 207.867 178.832 189.469 179.489 169.391C180.563 137.227 162.241 99.9598 187.831 72.7434C193.117 67.1913 199.872 62.138 207.859 62.5733C214.15 62.8949 220.167 65.8008 226.051 67.6969C233.111 69.9721 240.081 70.6395 247.442 71.4333C256.293 72.427 265.024 73.713 273.842 75.205C307.934 80.7938 343.03 87.8514 377.202 78.9297C394.033 74.5518 409.961 67.2102 427.05 63.4503C444.651 59.5246 462.828 58.9409 480.301 64.3167C496.79 69.4263 511.173 78.9998 526.136 87.4109C532.51 90.9416 538.892 94.3726 545.719 97.1328C552.348 99.8796 559.243 101.643 565.878 104.29C591.619 114.825 615.333 131.632 642.568 137.862C670.98 144.471 697.723 165.385 710.468 191.767C713.721 198.492 716.328 205.875 715.915 213.456C715.523 220.737 712.45 227.639 708.727 233.797C701.853 245.049 692.122 254.107 684.962 265.14C676.57 278.092 669.787 292.454 663.236 306.33C656.819 319.715 650.595 333.213 645.741 347.203C642.127 357.673 638.911 368.169 634.712 378.399C630.753 388.045 626.001 399.038 617.635 405.686C612.77 409.464 607.934 409.841 601.949 409.439C592.672 408.818 583.576 407.006 574.312 406.185C566.345 405.451 559.228 406.976 551.637 409.571C545.377 411.754 538.572 413.1 532.577 415.801C501.971 429.768 473.862 448.306 445.587 466.332C422.023 481.371 391.635 490.646 375.378 514.684C373.48 517.56 371.489 520.33 368.654 522.242C366.132 523.975 363.092 524.472 360.318 525.488C354.876 527.425 349.693 529.981 344.337 532.125C338.981 534.269 332.787 536.957 326.908 536.463C318.935 535.828 316.968 526.386 316.615 519.755C315.921 507.796 319.505 494.821 312.205 484.221C305.809 475.083 294.32 471.61 284.361 467.739C252.13 455.367 224.785 431.51 191.567 421.876C174.566 416.932 156.763 416.439 139.735 411.894C138.75 411.628 138.377 412.704 139.069 412.851Z" fill="url(#paint5_linear_1_216)"/>
<path d="M149.805 403.76C167.291 408.937 185.746 410.174 202.359 417.895C218.878 425.509 234.332 435.555 250.385 444.139C257.445 447.916 264.611 451.599 272.023 454.599C277.681 456.88 283.678 458.584 289.449 460.672C295.512 462.881 301.642 465.594 306.027 470.393C311.156 476.043 312.566 483.345 312.359 490.839C312.116 501.835 308.278 517.095 316.996 525.988C322.81 531.884 333.222 527.576 339.609 525.001C345.377 522.685 350.88 519.85 356.376 517.115C361.246 514.739 366.362 513.18 371.219 511.002C376.182 508.732 379.385 504.342 382.196 499.825C386.352 493.196 391.132 487.71 397.182 482.71C408.956 473.088 422.994 467.021 436.913 461.247C451.137 455.393 464.924 448.608 478.637 441.419C494.739 432.988 510.755 424.351 526.844 416.119C530.89 414.087 534.835 412.049 538.881 410.018C542.407 408.252 546.066 407.496 549.679 405.937C557.317 402.644 563.811 398.475 572.444 398.252C581.675 398.07 590.866 398.486 600.045 397.6C604.282 397.183 607.874 395.922 611.169 393.14C618.816 386.745 623.208 376.628 626.921 367.666C631.353 356.952 634.716 345.764 638.856 334.93C644.589 319.797 652.384 305.303 660.444 291.328C667.591 278.993 674.632 266.751 684.744 256.517C692.812 248.348 702.084 240.16 707.009 229.578C712.293 218.119 708.759 206.67 703.062 196.077C696.469 183.922 686.962 173.374 676.109 164.938C665.064 156.389 652.567 150.046 639.055 146.838C626.329 143.882 614.67 136.994 603.49 130.438C591.631 123.537 580.113 116.057 567.801 109.926C555.011 103.463 541.122 99.929 528.458 93.0736C514.253 85.314 500.748 76.0996 485.39 70.5653C470.032 65.0309 453.666 64.0341 437.655 66.665C420.328 69.5079 404.353 76.0455 387.762 81.3404C369.84 87.0466 350.845 87.8757 332.218 86.2267C314.389 84.6312 296.795 81.0492 279.16 78.0653C270.243 76.5665 261.285 75.6658 252.255 74.3597C244.714 73.2536 237.794 70.3871 230.5 68.5968C203.212 61.6621 186.624 92.0847 186.157 115.279C185.761 132.972 191.405 150.269 191.509 167.995C191.665 179.017 188.564 187.819 183.208 197.371C171.45 218.607 155.731 237.675 140.723 256.591C134.257 264.767 127.699 272.837 121.52 281.232C115.56 289.342 111.908 297.407 110.821 307.545C109.245 321.955 111.16 336.599 113.003 350.838C113.947 357.609 114.899 364.28 115.744 371.044C116.464 376.698 117.809 381.994 120.997 386.713C127.752 396.476 139.3 400.553 149.805 403.76C150.49 404.006 150.863 402.93 150.178 402.684C138.204 398.978 125.007 394.089 119.738 381.623C117.057 375.337 116.837 368.214 115.879 361.643C114.941 354.772 113.903 347.895 113.171 340.939C111.615 326.919 110.046 311.597 114.089 297.753C116.691 288.918 122.789 281.718 128.382 274.585C142.545 256.313 157.379 238.487 170.685 219.557C176.665 211.148 182.365 202.42 187.003 193.121C191.527 184.014 193.191 175.716 192.781 165.477C192.112 148.714 187.006 132.354 187.44 115.565C187.746 100.669 192.934 86.2008 204.415 76.4589C210.685 71.1729 217.724 67.8406 226.056 69.0999C232.806 70.0528 239.228 72.8859 245.93 74.5364C253.617 76.4532 261.511 76.7821 269.351 77.9083C277.782 79.1742 286.201 80.6395 294.619 82.1047C327.893 87.939 361.063 92.3647 393.708 80.8379C409.828 75.111 426.154 69.2977 443.228 67.2387C461.007 65.1268 478.342 68.0907 494.563 75.6851C508.935 82.4548 522.042 91.6424 536.408 98.5118C543.009 101.657 549.884 103.72 556.725 106.281C562.489 108.469 568.013 111.242 573.324 114.201C595.067 126.07 615.795 142.575 640.251 148.419C667.965 154.982 694.341 176.872 705.49 203.147C708.337 209.945 710.166 216.975 708.164 224.349C706.562 230.249 703.106 235.423 699.277 240.172C691.953 249.191 682.45 256.363 675.604 265.715C666.768 277.836 659.24 291.347 652.331 304.599C646.129 316.296 640.411 328.227 635.957 340.742C632.117 351.597 628.568 362.571 623.75 373.06C619.759 381.702 613.935 393.725 603.751 396.146C594.89 398.255 584.835 397.281 575.817 397.277C568.9 397.314 563.519 398.355 557.205 401.335C550.784 404.409 544.038 406.359 537.811 409.546C529.826 413.516 521.828 417.685 513.93 421.86C498.759 429.853 483.682 437.953 468.524 445.746C455.969 452.113 443.068 457.655 430.167 463.197C417.373 468.646 404.824 474.913 394.381 484.124C389.376 488.494 385.448 493.236 381.957 498.908C377.914 505.345 374.153 509.097 366.968 511.619C356.903 515.249 347.693 521.038 337.713 524.874C332.877 526.752 326.603 529.135 321.404 527.485C314.542 525.223 313.088 515.615 312.901 509.496C312.586 497.862 316.461 485.008 310.28 474.182C305.074 465.224 294.809 461.432 285.401 458.299C270.608 453.303 256.821 446.773 243.214 439.053C228.829 430.981 214.718 421.826 199.414 415.495C183.725 408.937 166.574 407.687 150.364 402.897C149.494 402.438 149.113 403.614 149.805 403.76Z" fill="url(#paint6_linear_1_216)"/>
<path d="M160.541 394.67C169.065 397.544 177.941 399.64 186.478 402.315C195.5 405.222 203.743 409.279 211.939 414.033C226.889 422.643 241.485 432.03 257.134 439.186C268.701 444.466 281.282 446.611 292.856 451.792C298.493 454.372 303.75 458.128 306.572 463.823C309.838 470.349 309.332 477.823 308.754 484.892C307.746 495.336 305.153 509.979 314.23 517.995C320.098 523.094 329.458 519.516 335.639 517.028C346.351 512.74 356.093 506.486 366.546 501.58C370.897 499.469 375.879 498.401 379.786 495.46C384.545 491.774 387.409 486.46 390.46 481.359C406.579 454.909 437.157 448.75 464.334 439.56C479.615 434.377 494.664 428.178 509.348 421.454C517.519 417.697 525.603 413.734 533.594 409.664C537.852 407.447 542.011 405.223 546.27 403.006C548.658 401.764 551.113 401.028 553.502 399.787C558.485 397.217 561.829 392.236 567.271 390.298C568.708 389.794 569.898 389.974 571.315 389.768C573.137 389.49 575.1 388.621 576.936 388.143C581.313 387.135 585.856 386.639 590.319 385.836C595.288 384.968 599.964 383.98 603.891 380.74C607.605 377.685 610.395 373.467 612.687 369.216C618.496 358.894 622.178 347.428 626.132 336.38C631.059 322.795 637.243 309.895 644.796 297.487C648.846 290.952 653.081 284.628 657.709 278.431C661.791 272.899 665.687 267.153 670.712 262.485C679.039 254.934 688.662 248.972 695.859 240.344C702.95 231.809 704.341 223.093 700.433 212.72C695.597 199.782 686.742 188.477 676.442 179.277C666.335 170.191 654.304 162.877 641.252 158.799C636.046 157.248 630.9 156.303 626.04 154.075C620.203 151.481 614.72 148.111 609.243 144.64C597.91 137.373 587.03 129.336 575.811 121.877C566.027 115.415 556.428 110.667 545.472 106.729C529.721 101.068 515.95 91.3353 501.246 83.5423C486.728 75.9619 471.423 71.1318 454.863 71.5234C438.103 71.9017 421.944 76.725 406.144 82.1731C397.322 85.1857 388.68 88.5107 379.547 90.201C370.414 91.8914 360.963 92.3591 351.659 92.1359C333.663 91.5303 315.962 88.0413 298.348 84.7583C289.637 83.1734 280.926 81.5884 272.082 80.495C263.936 79.4484 256.17 77.2261 248.284 75.296C235.272 72.1212 224.362 74.8938 214.517 84.1447C205.418 92.7449 200.812 104.549 199.783 116.794C198.457 133.423 203.563 149.783 204.552 166.267C205.253 178.127 203.25 187.003 197.547 197.232C186.356 217.505 170.903 235.59 156.361 253.536C149.583 261.891 142.712 270.14 136.127 278.609C130.96 285.37 125.92 291.739 124.435 300.349C122.255 313.318 125.036 327.019 127.585 339.703C128.935 346.401 130.485 353.112 131.736 359.803C132.762 365.378 133.056 371.404 135.305 376.661C139.825 386.874 150.655 391.204 160.541 394.67C161.226 394.916 161.599 393.84 160.915 393.594C148.09 389.13 136.756 383.365 134.541 368.701C132.518 355.651 129.371 342.926 127.141 329.963C125.051 317.91 122.65 303.033 128.633 291.621C132.431 284.367 138.276 277.952 143.416 271.589C157.744 253.829 172.651 236.408 185.936 217.777C191.577 209.946 197.031 201.903 201.229 193.174C205.54 184.253 206.592 176.115 205.962 166.162C204.967 149.777 199.861 133.417 201.179 116.887C202.35 102.55 208.554 89.3511 220.446 80.9382C227.287 76.091 234.545 73.9746 242.87 75.3335C249.912 76.4062 256.754 78.967 263.769 80.4383C271.974 82.0895 280.347 82.7508 288.565 84.2028C296.984 85.668 305.389 87.3326 313.907 88.8045C330.836 91.8414 348.112 94.2007 365.418 93.1583C382.425 92.0958 397.447 86.2954 413.434 81.06C429.32 75.818 445.931 71.7256 462.789 72.8556C480.744 74.0592 496.453 81.8194 511.688 90.6491C524.61 98.1225 537.166 105.071 551.275 109.821C562.152 113.453 571.995 120.52 581.38 126.955C591.914 134.168 602.123 141.76 613.004 148.296C617.43 150.995 621.871 153.495 626.644 155.517C631.51 157.645 636.564 158.484 641.571 160.021C655.792 164.579 668.839 173.162 679.457 183.584C689.132 193.142 698.976 206.115 701.451 219.896C703.694 232.66 693.004 242.555 684.092 249.867C675.812 256.72 667.992 262.703 661.4 271.271C652.051 283.558 643.474 296.298 636.238 309.928C630.722 320.37 626.582 331.205 622.621 342.352C618.674 353.299 614.779 364.951 607.834 374.297C604.192 379.258 600.086 382.186 594.086 383.486C590.52 384.348 586.782 384.799 583.137 385.355C578.68 386.057 574.376 387.471 570.026 388.08C565.47 388.776 562.315 390.967 558.715 393.829C553.836 397.807 548.587 399.858 543.078 402.792C527.58 411.163 511.732 418.811 495.631 425.74C481.699 431.714 467.515 436.97 452.986 441.402C440.606 445.177 428.026 448.939 416.581 455.179C405.342 461.334 395.651 469.794 388.997 480.761C385.607 486.44 382.296 492.425 376.261 495.724C372.102 497.948 367.306 499.228 363.054 501.346C352.994 506.378 343.372 512.34 332.887 516.242C328.469 517.848 322.934 519.68 318.22 518.263C311.738 516.326 309.484 508.167 308.984 502.227C307.991 490.247 312.744 477.752 308.931 465.983C305.867 456.468 297.392 451.395 288.49 448.195C276.356 443.878 264.335 440.87 252.695 435.184C236.787 427.411 222.018 417.611 206.563 409.067C192.172 401.095 176.34 398.132 160.855 392.989C160.23 393.348 159.856 394.424 160.541 394.67Z" fill="url(#paint7_linear_1_216)"/>
<path d="M171.277 385.58C179.368 388.925 187.692 391.786 195.55 395.616C203.793 399.672 211.35 404.984 219.033 409.904C232.772 418.633 247.223 427.21 262.82 432.16C273.711 435.593 286.16 436.728 295.837 443.283C307.907 451.5 306.458 465.518 304.989 478.334C303.803 488.466 302.267 502.278 311.292 509.59C316.894 514.17 325.396 511.436 331.464 509.14C342.261 505.059 352.103 498.811 362.204 493.181C366.37 490.857 370.542 488.434 374.973 486.629C380.129 484.472 384.66 482.673 388.561 478.33C392.576 473.793 395.254 468.267 398.305 463.165C402.141 456.815 407.128 451.243 412.951 446.628C424.279 437.677 438.123 432.999 452.066 429.829C465.702 426.738 479.578 424.565 493.155 420.87C508.369 416.684 523.165 411.269 537.357 404.412C544.403 400.98 551.476 397.149 558.25 393.298C561.164 391.692 562.784 388.497 564.761 385.926C568.377 381.363 574.843 379.094 580.212 376.751C585.788 374.321 592.128 372.444 596.82 368.253C604.927 360.988 608.935 349.144 612.609 339.279C617.482 326.491 621.75 313.763 628.864 301.927C636.664 288.834 646.718 276.494 657.84 266.128C665.109 259.407 674.796 255.451 682.809 249.581C689.457 244.621 696.839 237.708 696.05 228.645C695.063 216.566 685.883 204.138 678.05 195.504C668.722 185.268 657.164 176.885 644.4 171.524C639.042 169.263 633.29 168.377 627.818 166.308C622.832 164.473 618.113 161.653 613.706 158.655C593.846 145.611 577.123 127.672 556.151 116.255C551.511 113.742 546.591 112.411 541.604 110.575C533.593 107.535 526.062 103.326 518.637 99.0246C504.459 90.8663 490.414 82.2165 474.096 79.0205C458.57 75.9775 442.793 78.1235 427.778 82.3228C410.622 87.0793 394.361 94.8991 376.509 96.6056C358.557 98.3055 340.603 95.6004 322.989 92.3175C305.374 89.0345 287.406 86.5287 269.952 82.3555C256.734 79.267 245.276 78.2988 233.517 86.2201C223.335 93.0459 216.808 103.62 214.496 115.579C211.548 130.998 215.711 146.494 217.479 161.829C218.377 169.297 219.32 177.569 217.418 184.95C216.35 188.883 214.591 192.669 212.639 196.343C201.986 216.051 186.681 233.445 172.399 250.507C165.422 258.849 158.351 267.085 151.474 275.434C146.78 281.125 140.535 287.514 138.248 294.669C134.833 305.152 138.007 317.478 140.718 327.771C143.992 340.103 148.483 352.217 150.733 364.882C152.644 376.622 160.946 381.283 171.277 385.58C171.962 385.826 172.336 384.75 171.651 384.504C165.801 382.109 159.159 379.562 155.213 374.192C151.447 369.134 151.414 362.224 149.909 356.317C146.835 343.998 142.337 331.984 139.774 319.498C137.51 308.535 136.356 297.445 143.109 287.987C147.983 281.106 153.529 274.67 158.876 268.221C173.37 250.973 188.143 234.044 201.401 215.811C206.709 208.459 211.83 200.893 215.688 192.743C220.146 183.131 219.823 173.098 218.622 162.706C216.808 146.567 212.201 130.241 215.9 114.071C219.139 100.273 228.673 88.198 242.146 83.0945C250.069 80.0216 258.308 81.1746 266.4 83.0184C273.508 84.596 280.517 86.167 287.858 87.2597C304.622 89.7849 321.185 93.7983 337.949 96.3235C354.021 98.7023 370.487 99.7058 386.432 96.57C402.882 93.3679 418.225 85.787 434.615 81.9803C452.024 77.9415 469.874 77.7364 486.781 84.0753C501.926 89.7956 515.212 99.2956 529.544 106.663C539.907 111.963 551.257 114.526 561.148 120.895C570.938 127.257 580.056 134.676 589.181 141.995C598.212 149.207 607.33 156.626 617.254 162.497C626.307 167.909 636.435 169.289 645.961 173.631C659.576 179.749 671.751 189.375 681.084 201.013C688.292 210.005 699.344 225.863 692.935 237.646C687.792 247.012 676.694 252.575 667.917 257.893C659.033 263.304 652.27 269.959 645.327 277.802C636.106 288.196 627.908 299.76 621.951 312.275C616.58 323.528 613.151 335.711 608.265 347.197C605.986 352.75 603.407 358.284 599.871 363.152C596.002 368.499 590.918 371.061 584.93 373.663C579.561 376.006 573.999 378.236 568.716 380.785C565.197 382.452 563.118 386.517 560.814 389.466C557.412 393.843 550.32 396.471 545.429 399.146C538.256 402.97 530.804 406.475 523.279 409.575C508.849 415.515 493.914 420.02 478.654 423.402C454.142 428.766 427.517 431.286 408.267 449.217C403.667 453.514 399.825 458.462 396.655 463.856C393.484 469.249 390.686 475.068 385.98 479.458C381.806 483.383 376.611 484.636 371.64 487.006C367.189 489.11 362.911 491.627 358.639 494.043C349.157 499.414 339.741 505.29 329.475 508.907C325.264 510.427 320.049 511.979 315.527 510.675C309.623 509.078 306.683 502.173 305.744 496.805C303.653 484.751 308.466 472.861 307.18 460.761C306.052 450.775 300.219 443.677 291.278 439.574C281.267 434.998 270.121 433.851 259.756 430.053C243.328 424.046 228.426 414.738 213.83 405.351C207.489 401.322 201.254 397.2 194.361 393.935C186.982 390.437 179.25 387.716 171.737 384.71C170.973 384.158 170.593 385.334 171.277 385.58Z" fill="url(#paint8_linear_1_216)"/>
<path d="M181.921 376.383C188.493 381.429 196.065 385.04 202.858 389.8C210.129 394.892 216.96 400.556 224.458 405.263C237.147 413.221 250.669 419.233 265.377 422.521C276.135 424.944 289.355 426.531 297.188 435.165C306.423 445.295 302.426 459.943 301.005 472.061C299.839 481.894 299.481 494.584 308.247 501.278C314.056 505.772 322.558 503.038 328.725 500.748C339.523 496.667 349.365 490.419 359.28 484.576C363.871 481.881 368.369 479.079 373.047 476.59C377.206 474.366 381.71 472.966 385.868 470.742C397.193 464.793 401.155 452.145 407.842 442.182C416.526 429.349 429.708 421.123 444.523 416.91C457.395 413.268 470.684 412.357 483.873 411.439C498.978 410.349 513.97 407.95 528.499 403.518C540.374 399.809 555.184 394.195 564.129 386.385C565.407 385.269 565.894 384.001 566.634 381.948C567.388 379.696 568.141 377.444 569.28 375.418C570.299 373.684 571.863 372.788 573.354 371.487C578.606 366.433 584.802 362.243 589.675 356.863C593.35 352.905 595.788 347.963 598.021 343.107C603.912 330.087 607.569 316.017 614.145 303.243C620.828 290.377 630.454 279.91 641.775 271.058C645.795 267.924 649.602 264.975 654.252 262.884C658.803 260.787 663.434 258.995 667.978 256.997C675.117 253.671 684.731 249.31 687.964 241.518C691.89 232.371 683.415 219.89 678.281 212.839C670.038 201.374 658.96 191.822 646.476 185.279C636.897 180.232 625.951 179.098 616.819 173.38C597.104 161.147 581.592 143.089 563.415 128.856C559.514 125.791 555.6 122.926 551.252 120.533C546.805 118.132 541.971 117.007 537.291 115.092C522.273 108.98 509.107 99.1874 494.442 92.2979C479.677 85.4018 463.898 83.1428 447.715 85.3617C430.62 87.7197 415.204 94.8953 398.667 99.393C380.699 104.295 361.945 103.038 343.818 99.9211C325.991 96.8241 308.097 93.2221 290.41 89.5338C275.981 86.5644 262.323 84.0472 248.782 91.6488C238.468 97.4646 231.21 106.989 228.333 118.409C221.765 144.398 239.603 172.523 226.525 196.974C216.319 216.011 201.06 232.708 187.033 248.986C179.749 257.408 172.372 265.723 165.182 274.251C160.395 279.836 154.79 285.667 151.246 292.137C146.676 300.44 149.851 311.265 152.59 319.657C156.49 331.631 162.146 342.822 165.946 354.79C167.438 359.395 167.579 364.71 170.209 368.791C172.932 372.978 177.293 375.172 182 376.689C182.685 376.935 183.058 375.859 182.374 375.613C177.866 374.109 173.498 372.014 170.975 367.841C168.91 364.299 168.701 359.98 167.554 356.199C165.532 349.056 162.486 342.245 159.739 335.453C154.762 323.106 145.03 304.034 153.315 291.175C159.256 281.862 167.331 273.594 174.508 265.265C184.394 253.915 194.381 242.571 203.889 230.895C212.298 220.647 220.727 210.1 227.129 198.416C229.188 194.649 231.16 190.677 232.048 186.432C233.766 177.337 232.046 167.211 230.751 158.214C227.869 138.6 224.252 116.534 239.257 100.621C246.6 92.804 257.165 87.7059 267.9 87.5244C278.335 87.3228 288.633 90.616 298.834 92.4009C321.216 96.3038 343.53 102.705 366.301 103.831C377.287 104.367 388.268 103.501 398.885 100.609C409.502 97.7166 419.721 93.296 430.345 90.3041C441.175 87.2258 452.437 85.1777 463.822 85.7406C476.112 86.264 487.581 90.0361 498.429 95.5685C507.922 100.409 516.749 106.207 526.235 111.147C533.587 115.044 541.565 117.08 548.944 120.578C561.947 126.856 572.817 137.996 583.396 147.514C593.982 156.933 604.514 167.15 616.638 174.57C621.643 177.608 626.563 178.939 632.062 180.609C641.197 183.323 649.706 187.898 657.349 193.416C665.464 199.366 672.693 206.558 678.345 214.845C682.629 221.139 689.908 232.038 687.36 240.076C685.326 246.447 678.339 250.484 672.83 253.418C667.014 256.432 660.94 258.828 654.952 261.43C642.244 267.085 630.596 277.817 622.146 288.663C611.053 303.036 606.103 319.923 599.57 336.504C596.423 344.502 592.864 352.672 586.355 358.543C580.91 363.484 574.801 367.879 569.549 372.933C567.725 374.713 563.321 383.528 564.682 385.621C564.503 385.309 564.11 385.183 563.791 385.461C546.754 397.334 526.949 404.215 506.568 407.754C489.733 410.73 472.508 410.577 455.679 413.453C440.267 416.124 425.159 421.719 413.975 432.982C402.466 444.624 398.617 464.488 382.536 471.119C370.787 475.938 360.292 482.942 349.239 489.309C343.191 492.808 337.042 496.3 330.549 498.969C325.393 501.126 319.219 503.515 313.474 502.529C305.647 501.204 302.15 492.16 301.518 485.21C300.761 477.15 302.604 469.165 303.542 461.219C305.11 448.41 303.153 435.865 290.975 429.243C284.594 425.812 277.386 424.227 270.378 422.656C261.395 420.653 252.625 418.463 244.155 414.792C232.674 409.718 222.006 402.996 211.99 395.517C207.219 391.994 202.653 388.384 197.555 385.24C192.45 382.194 187.239 379.242 182.573 375.626C181.915 374.981 181.349 375.944 181.921 376.383Z" fill="url(#paint9_linear_1_216)"/>
<path d="M192.564 367.187C205.677 383.683 221.426 398.253 241.464 405.703C255.93 411.077 272.398 410.579 286.365 417.422C303.821 426 300.06 444.568 297.784 460.433C296.244 471.342 295.143 490.589 308.999 494.622C319.218 497.609 331.734 490.339 340.265 485.705C353.267 478.668 365.272 470.063 378.274 463.026C383.79 459.992 390.116 458.313 395.095 454.342C401.65 449.276 405.568 441.73 409.458 434.582C414.049 425.98 419.104 417.91 426.844 411.621C434.159 405.705 442.835 401.881 451.895 399.786C471.964 394.924 492.372 398.394 512.763 397.659C533.86 396.871 554.827 392.069 571.758 378.788C571.472 378.569 571.193 378.25 570.908 378.031C571.787 376.888 571.072 372.636 571.194 370.842C571.369 368.251 571.909 366.185 572.863 363.946C576.462 355.178 583.159 348.018 587.051 339.369C595.415 320.909 598.832 300.015 612.042 283.982C621.756 272.22 636.021 265.768 650.496 262.133C659.975 259.765 675.281 257.187 680.802 248.147C683.506 243.723 681.343 238.673 679.531 234.347C675.994 225.901 670.495 218.324 664.123 211.79C657.565 205.044 649.935 199.327 641.612 194.965C635.032 191.521 627.996 190.348 621.169 187.588C608.876 182.66 598.645 170.962 589.343 161.829C579.01 151.626 569.004 141.044 557.906 131.791C553.826 128.414 549.546 125.024 544.573 122.989C540.87 121.439 537.027 120.481 533.424 118.938C527.873 116.564 522.462 113.598 517.257 110.546C498.253 99.6621 480.099 89.5356 457.466 90.8216C447.004 91.4217 436.806 94.0418 426.774 97.1735C415.818 100.644 405.179 105.336 393.645 106.966C369.062 110.424 344.814 102.992 321.002 97.9923C301.44 93.878 280.09 88.0421 261.552 98.4122C247.911 106.007 241.155 119.97 240.529 135.145C240.027 145.522 242.346 155.689 243.759 165.895C244.889 174.379 246.536 184.1 243.369 192.397C239.216 203.431 230.933 213.288 223.603 222.407C205.992 244.251 185.915 264.029 168.397 285.98C165.987 289.022 163.064 292.229 162.096 296.169C160.855 301.191 162.286 306.693 163.864 311.504C168.793 326.05 178.158 338.691 183.605 352.971C185.98 359.337 186.135 364.453 193.029 367.718C193.707 368.064 194.08 366.988 193.402 366.642C186.116 363.251 185.36 353.689 182.214 346.871C178.975 339.947 175.117 333.281 171.679 326.344C168.226 319.605 164.795 312.568 163.298 305.059C162.2 299.079 163.301 294.648 166.831 289.879C182.372 268.997 201.55 250.661 218.334 230.663C226.617 220.807 235.019 210.658 241.288 199.466C243.12 196.085 244.958 192.604 245.62 188.744C247.465 179.257 245.28 168.599 243.912 159.197C241.056 140.686 239.053 119.929 253.851 105.604C271.111 88.9419 294.523 93.9149 315.589 98.0299C337.937 102.431 360.204 109.53 383.189 108.968C405.768 108.479 425.484 96.9869 447.388 93.1493C459.455 91.055 471.758 91.3791 483.44 94.9652C493.945 98.172 503.483 103.817 513.028 109.362C521.703 114.448 530.577 119.548 540.184 122.695C545.476 124.451 549.923 126.851 554.396 130.355C566.206 139.455 576.378 150.549 586.896 160.964C596.099 170.09 605.54 180.133 616.92 186.703C622.031 189.648 627.89 190.441 633.361 192.51C642.642 196.035 651.097 201.407 658.573 207.915C666.135 214.628 672.812 222.584 677.306 231.695C680.565 238.32 683.798 245.344 677.215 250.81C667.87 258.592 654.056 259.869 642.707 263.213C628.903 267.293 616.179 276.151 607.968 287.914C597.086 303.602 593.684 322.795 585.82 339.787C581.949 348.137 575.857 355.237 571.885 363.58C570.133 367.267 569.929 371.758 570.052 375.871C570.104 376.575 570.393 381.2 572.044 379.008C572.483 378.437 571.719 377.885 571.193 378.25C554.575 391.352 533.814 396.067 513.023 396.775C496.15 397.346 479.373 395.02 462.605 397C446.642 398.933 431.114 404.8 420.175 416.881C408.372 429.905 404.868 450.593 387.337 457.927C375.474 462.938 364.873 470.036 353.993 476.815C342.707 483.667 329.997 492.325 316.647 494.133C309.57 495.06 304.359 492.108 300.986 485.675C296.99 478.1 298.109 468.964 299.26 460.833C301.154 447.645 305.246 431.602 294.122 421.245C283.47 411.321 266.332 411.374 252.92 408.172C228.372 402.222 209.313 386.229 193.901 366.675C192.958 365.811 192.099 366.655 192.564 367.187Z" fill="url(#paint10_linear_1_216)"/>
<path d="M203.114 357.884C205.838 367.977 208.603 377.472 216.843 384.532C223.661 390.395 232.337 393.98 241.007 396.163C255.682 399.949 273.4 398.734 286.447 407.317C302.751 418.121 295.423 439.053 293.46 454.738C292.113 465.76 293.187 483.952 307.138 486.589C318.807 488.873 332.303 480.467 341.891 475.003C355.239 467.289 367.771 458.318 381.219 450.61C386.742 447.476 393.081 445.599 398.339 441.947C405.592 436.927 410.208 429.428 414.339 421.696C419.049 412.802 423.367 403.781 430.755 396.768C437.612 390.22 446.228 385.792 455.408 383.404C496 372.91 543.351 403.214 578.761 371.55C579.294 371.085 578.55 370.235 578.017 370.7C575.695 372.446 573.401 357.476 573.422 355.675C573.152 346.347 578.727 336.51 580.937 327.548C585.663 308.043 590.635 281.948 609.055 270.368C619.729 263.676 633.615 264.306 645.833 262.923C651.992 262.234 658.265 261.353 664.205 259.449C667.791 258.288 672.408 256.695 674.446 253.228C676.938 248.99 673.432 243.049 671.586 239.221C667.716 231.253 662.183 224.175 655.677 218.133C649.458 212.31 642.479 207.337 634.814 203.62C628.606 200.601 621.537 199.927 615.647 196.629C604.825 190.698 596.023 180.097 587.711 171.131C577.812 160.456 568.338 149.41 557.893 139.4C554.132 135.744 550.264 132.181 545.851 129.282C540.381 125.712 533.652 124.46 527.828 121.667C508.71 112.477 492.009 98.6439 470.091 96.7743C459.829 95.8862 449.506 97.3967 439.508 100.03C428.492 102.896 418.046 107.701 407.044 110.368C383.103 116.171 358.855 108.739 335.689 103.082C316.267 98.3766 294.41 94.1085 275.64 103.462C262.366 110.08 255.178 123.013 253.995 137.55C253.241 147.21 255.101 156.745 256.462 166.246C257.691 174.738 259.81 184.891 256.743 193.195C253.036 203.558 245 212.73 238.222 221.085C220.638 242.531 200.688 261.916 182.626 283.03C176.967 289.658 171.688 295.111 174.167 304.387C177.679 317.637 187.319 329.195 194.67 340.499C198.29 346.248 201.338 351.558 203.114 357.884C203.266 358.595 204.484 358.376 204.232 357.658C200.778 345.013 191.663 334.591 184.79 323.619C179.092 314.528 170.152 301.515 177.757 291.313C184.482 282.254 192.444 274.178 200.12 265.883C209.639 255.509 219.252 245.241 228.586 234.655C237.168 224.818 245.856 214.889 252.816 203.843C254.948 200.482 257.099 196.822 258.266 192.896C260.334 186.027 259.178 177.941 258.247 170.971C255.81 152.187 250.522 131.11 263.552 114.765C277.468 97.1775 302.986 97.6866 322.961 101.628C345.509 106.043 367.588 114.43 390.78 113.782C412.461 113.234 431.592 101.502 452.93 98.6273C465.062 97.0379 477.212 98.1526 488.734 102.629C499.185 106.633 508.49 112.763 518.241 118.222C522.203 120.389 526.165 122.557 530.253 124.333C534.049 125.989 537.992 126.954 541.788 128.61C546.555 130.731 550.608 134.507 554.382 137.963C564.762 147.468 573.957 158.196 583.471 168.644C591.962 177.923 600.519 187.706 610.734 195.199C614.455 197.951 617.972 199.288 622.401 200.486C631.656 202.908 640.258 207.589 647.788 213.299C655.889 219.448 663.184 227.145 668.29 236.097C671.245 241.3 677.149 250.306 671.02 255C666.474 258.5 659.783 259.653 654.308 260.587C648.428 261.595 642.575 262.204 636.636 262.606C624.038 263.664 610.909 265.187 601.742 274.783C587.935 289.275 583.826 310.022 579.246 328.836C577.164 337.406 572.061 346.174 572.06 355.084C571.969 359.382 572.942 364.253 574.275 368.246C574.945 370.193 576.239 373.283 578.662 371.544C578.383 371.225 578.197 371.012 577.918 370.693C546.028 399.189 503.771 376.535 466.744 380.26C450.701 381.887 435.432 388.372 425.152 401.097C413.446 415.63 410.036 436.424 391.353 444.482C379.384 449.586 368.663 456.976 357.77 463.954C345.519 471.743 332.702 480.494 318.605 484.454C313.496 485.914 307.523 486.815 302.831 483.597C294.789 478.053 293.595 467.561 294.294 458.699C295.471 444.262 302.75 427.03 294.349 413.453C286.387 400.806 268.631 399.616 255.338 397.624C245.124 396.038 234.744 393.941 225.565 388.921C220.439 386.174 215.774 382.558 212.387 377.826C207.983 371.825 206.267 364.602 204.345 357.466C204.086 356.848 202.969 357.073 203.114 357.884Z" fill="url(#paint11_linear_1_216)"/>
</g>
<defs>
<linearGradient id="paint0_linear_1_216" x1="19.2218" y1="284.57" x2="743.301" y2="333.558" gradientUnits="userSpaceOnUse">
<stop stop-color="#BDEE60"/>
<stop offset="0.989583" stop-color="#005436"/>
</linearGradient>
<linearGradient id="paint1_linear_1_216" x1="36.0453" y1="281.576" x2="736.453" y2="328.962" gradientUnits="userSpaceOnUse">
<stop stop-color="#BDEE60"/>
<stop offset="0.989583" stop-color="#005436"/>
</linearGradient>
<linearGradient id="paint2_linear_1_216" x1="52.8059" y1="279.842" x2="729.678" y2="325.636" gradientUnits="userSpaceOnUse">
<stop stop-color="#BDEE60"/>
<stop offset="0.989583" stop-color="#005436"/>
</linearGradient>
<linearGradient id="paint3_linear_1_216" x1="68.8749" y1="279.113" x2="722.994" y2="323.368" gradientUnits="userSpaceOnUse">
<stop stop-color="#BDEE60"/>
<stop offset="0.989583" stop-color="#005436"/>
</linearGradient>
<linearGradient id="paint4_linear_1_216" x1="84.6337" y1="278.753" x2="716.314" y2="321.49" gradientUnits="userSpaceOnUse">
<stop stop-color="#BDEE60"/>
<stop offset="0.989583" stop-color="#005436"/>
</linearGradient>
<linearGradient id="paint5_linear_1_216" x1="99.4399" y1="278.711" x2="709.849" y2="320.008" gradientUnits="userSpaceOnUse">
<stop stop-color="#BDEE60"/>
<stop offset="0.989583" stop-color="#005436"/>
</linearGradient>
<linearGradient id="paint6_linear_1_216" x1="112.709" y1="278.457" x2="702.863" y2="318.384" gradientUnits="userSpaceOnUse">
<stop stop-color="#BDEE60"/>
<stop offset="0.989583" stop-color="#005436"/>
</linearGradient>
<linearGradient id="paint7_linear_1_216" x1="125.66" y1="278.301" x2="696.307" y2="316.908" gradientUnits="userSpaceOnUse">
<stop stop-color="#BDEE60"/>
<stop offset="0.989583" stop-color="#005436"/>
</linearGradient>
<linearGradient id="paint8_linear_1_216" x1="138.487" y1="277.967" x2="690.37" y2="315.304" gradientUnits="userSpaceOnUse">
<stop stop-color="#BDEE60"/>
<stop offset="0.989583" stop-color="#005436"/>
</linearGradient>
<linearGradient id="paint9_linear_1_216" x1="150.493" y1="278.134" x2="683.738" y2="314.211" gradientUnits="userSpaceOnUse">
<stop stop-color="#BDEE60"/>
<stop offset="0.989583" stop-color="#005436"/>
</linearGradient>
<linearGradient id="paint10_linear_1_216" x1="163.093" y1="277.905" x2="677.418" y2="312.702" gradientUnits="userSpaceOnUse">
<stop stop-color="#BDEE60"/>
<stop offset="0.989583" stop-color="#005436"/>
</linearGradient>
<linearGradient id="paint11_linear_1_216" x1="175.021" y1="277.439" x2="671.191" y2="311.008" gradientUnits="userSpaceOnUse">
<stop stop-color="#BDEE60"/>
<stop offset="0.989583" stop-color="#005436"/>
</linearGradient>
</defs>
</svg>
