<svg width="72" height="72" viewBox="0 0 72 72" fill="none" xmlns="http://www.w3.org/2000/svg">
<g clip-path="url(#clip0_1_118)">
<path fill-rule="evenodd" clip-rule="evenodd" d="M72 36C72 16.1177 55.8823 -1.00721e-05 36 -9.203e-06C16.1177 -8.33392e-06 -2.43482e-06 16.1177 -1.57361e-06 36C-6.96661e-07 55.8822 16.1177 72 36 72C55.8823 72 72 55.8822 72 36ZM41.327 30.6729C44.286 33.6319 48.7794 34.261 57.766 35.5191L61.2 35.9999L57.766 36.4806C48.7794 37.7388 44.2861 38.3678 41.327 41.3269C38.368 44.286 37.7389 48.7793 36.4808 57.7659L36 61.2L35.5192 57.7659C34.2611 48.7793 33.632 44.286 30.673 41.3269C27.7139 38.3678 23.2206 37.7388 14.2339 36.4806L10.8 35.9999L14.234 35.5191C23.2206 34.261 27.7139 33.6319 30.673 30.6729C33.6321 27.7138 34.2611 23.2205 35.5192 14.2339L36 10.8L36.4807 14.2338C37.7389 23.2205 38.3679 27.7138 41.327 30.6729Z" fill="white"/>
</g>
<defs>
<clipPath id="clip0_1_118">
<rect width="72" height="72" fill="white"/>
</clipPath>
</defs>
</svg>
