<svg width="64" height="64" viewBox="0 0 64 64" fill="none" xmlns="http://www.w3.org/2000/svg">
<g clip-path="url(#clip0_1_329)">
<path d="M32.4269 59.3069C34.0156 47.9596 34.8099 42.2859 38.5462 38.5496C42.2826 34.8132 47.9563 34.0189 59.3036 32.4303L63.6395 31.8232L59.3036 31.2162C47.9563 29.6276 42.2826 28.8333 38.5462 25.0969C34.8099 21.3605 34.0156 15.6869 32.4269 4.33956L31.8199 0.00350921L31.2128 4.33951C29.6242 15.6868 28.8299 21.3605 25.0935 25.0969C21.3572 28.8332 15.6835 29.6276 4.33617 31.2162L0 31.8232L4.33617 32.4303C15.6835 34.0189 21.3572 34.8132 25.0935 38.5496C28.8299 42.286 29.6242 47.9596 31.2128 59.307L31.8199 63.643L32.4269 59.3069Z" fill="#CFFF65"/>
</g>
<defs>
<clipPath id="clip0_1_329">
<rect width="45.0048" height="45.0048" fill="white" transform="translate(0 31.8232) rotate(-45)"/>
</clipPath>
</defs>
</svg>
