<svg width="76" height="76" viewBox="0 0 76 76" fill="none" xmlns="http://www.w3.org/2000/svg" class="star-icon">
<g clip-path="url(#clip0_1_442)">
<path d="M31.2745 70.0313C35.948 57.1003 38.2848 50.6348 43.5967 47.1722C48.9086 43.7095 55.7672 44.1809 69.4844 45.1236L74.7259 45.4839L69.7848 43.6981C56.8539 39.0246 50.3884 36.6879 46.9258 31.376C43.4631 26.0641 43.9345 19.2055 44.8772 5.48825L45.2375 0.246606L43.4517 5.18774C38.7782 18.1187 36.4414 24.5842 31.1295 28.0468C25.8176 31.5095 18.959 31.0381 5.24179 30.0954L0 29.7351L4.94132 31.521C17.8723 36.1945 24.3378 38.5312 27.8004 43.8431C31.263 49.155 30.7917 56.0136 29.8489 69.7308L29.4887 74.9725L31.2745 70.0313Z" fill="white"/>
</g>
<defs>
<clipPath id="clip0_1_442">
<rect width="54.4514" height="54.4514" fill="white" transform="translate(0 29.7351) rotate(-33.0989)"/>
</clipPath>
</defs>
</svg>
