<svg width="46" height="46" viewBox="0 0 46 46" fill="none" xmlns="http://www.w3.org/2000/svg">
<rect y="0.306152" width="45.4549" height="45.4549" rx="22.7275" fill="#1A3806"/>
<path d="M30.8568 27.1614C28.4417 27.1614 26.8477 25.2937 26.4012 24.5735C26.9725 19.9979 28.6482 18.5527 30.8568 18.5527C33.0414 18.5527 34.7411 20.3003 34.7411 22.8595C34.7411 25.4186 33.0414 27.1662 30.8568 27.1662V27.1614ZM30.8568 15.7439C26.9245 15.7439 24.7207 18.3078 24.0869 20.9485C23.3715 19.6042 22.8434 17.8037 22.4305 16.1328H16.9954V22.9027C16.9954 25.3561 15.8767 27.1758 13.6921 27.1758C11.5075 27.1758 10.2543 25.3609 10.2543 22.9027L10.2783 16.1328H7.14307V22.9027C7.14307 24.876 7.78164 26.6669 8.94836 27.9489C10.1487 29.2692 11.7907 29.9558 13.6921 29.9558C17.4755 29.9558 20.1162 27.0558 20.1162 22.9027V18.351C20.5099 19.849 21.451 22.725 23.2515 25.2457L21.571 34.8195H24.7591L25.8682 28.0353C26.2331 28.3378 26.622 28.6114 27.0301 28.8515C28.096 29.5237 29.3204 29.903 30.5783 29.9462C30.5783 29.9462 30.7704 29.9558 30.8712 29.9558C34.7699 29.9558 37.8763 26.9358 37.8763 22.8595C37.8763 18.7831 34.7651 15.7487 30.8664 15.7487L30.8568 15.7439Z" fill="white"/>
</svg>
